<?xml version="1.0" encoding="UTF-8" standalone="no"?>
<svg xmlns="http://www.w3.org/2000/svg"><symbol id="dxre-add-paragraph-to-table-of-contents" viewBox="0 0 16 16"><g clip-path="url(#clip0_1133_23367)"><path opacity="0.25" fill-rule="evenodd" clip-rule="evenodd" d="M4 10h2v2H4v-2Zm0-6h6v2H4V4Zm3 5H4V7h4L7 9Z"/><path d="M2 2h10v5h2V2c0-1.1-.9-2-2-2H2C.9 0 0 .9 0 2v12c0 1.1.9 2 2 2h5v-2H2V2Z"/><path fill-rule="evenodd" clip-rule="evenodd" d="M8 12c0 2.24 1.76 4 4 4s4-1.76 4-4-1.76-4-4-4-4 1.76-4 4Zm5-1h1.5v2H13v1.5h-2V13H9.5v-2H11V9.5h2V11Z"/></g><defs><clipPath id="clip0_1133_23367"><rect width="16" height="16" fill="white"/></clipPath></defs></symbol><symbol id="dxre-align-bottom-center" viewBox="0 0 16 16"><g clip-path="url(#clip0_1133_23379)"><path opacity="0.25" fill-rule="evenodd" clip-rule="evenodd" d="M1.778 0h12.444C15.2 0 16 .8 16 1.778v12.444C16 15.2 15.2 16 14.222 16H1.778C.8 16 0 15.2 0 14.222V1.778C0 .8.8 0 1.778 0Z"/><path fill-rule="evenodd" clip-rule="evenodd" d="M13 11H3V9h10v2Zm-2 3H5v-2h6v2ZM5 6h6v2H5V6Z"/></g><defs><clipPath id="clip0_1133_23379"><rect width="16" height="16" fill="white"/></clipPath></defs></symbol><symbol id="dxre-align-bottom-left" viewBox="0 0 16 16"><g clip-path="url(#clip0_1133_23387)"><path opacity="0.25" fill-rule="evenodd" clip-rule="evenodd" d="M1.778 0h12.444C15.2 0 16 .8 16 1.778v12.444C16 15.2 15.2 16 14.222 16H1.778C.8 16 0 15.2 0 14.222V1.778C0 .8.8 0 1.778 0Z"/><path fill-rule="evenodd" clip-rule="evenodd" d="M12 11H2V9h10v2Zm-4 3H2v-2h6v2ZM2 6h6v2H2V6Z"/></g><defs><clipPath id="clip0_1133_23387"><rect width="16" height="16" fill="white"/></clipPath></defs></symbol><symbol id="dxre-align-bottom-right" viewBox="0 0 16 16"><g clip-path="url(#clip0_1133_23396)"><path opacity="0.25" fill-rule="evenodd" clip-rule="evenodd" d="M1.778 0h12.444C15.2 0 16 .8 16 1.778v12.444C16 15.2 15.2 16 14.222 16H1.778C.8 16 0 15.2 0 14.222V1.778C0 .8.8 0 1.778 0Z"/><path fill-rule="evenodd" clip-rule="evenodd" d="M4 9h10v2H4V9Zm4 3h6v2H8v-2Zm6-4H8V6h6v2Z"/></g><defs><clipPath id="clip0_1133_23396"><rect width="16" height="16" fill="white"/></clipPath></defs></symbol><symbol id="dxre-align-center" viewBox="0 0 16 16"><g clip-path="url(#clip0_1133_23457)"><path d="M0 0h16v2H0V0Zm3 3.5h10v2H3v-2ZM0 7h16v2H0V7Zm3 3.5h10v2H3v-2ZM0 14h16v2H0v-2Z"/></g><defs><clipPath id="clip0_1133_23457"><rect width="16" height="16" fill="white"/></clipPath></defs></symbol><symbol id="dxre-align-floating-object-bottom-center" viewBox="0 0 16 16"><path d="M16 3V1H0v2h16Z"/><path d="M16 5H0v2h16V5Z"/><path d="M16 13h-3v2h3v-2Z"/><path d="M16 9h-3v2h3V9Z"/><path d="M3 13H0v2h3v-2Z"/><path d="M3 9H0v2h3V9Z"/><path d="M5 9h6v6H5V9Z"/></symbol><symbol id="dxre-align-floating-object-bottom-left" viewBox="0 0 16 16"><path d="M0 5v2h16V5H0Z"/><path d="M16 1H0v2h16V1Z"/><path d="M16 9H8v2h8V9Z"/><path d="M16 13H8v2h8v-2Z"/><path d="M0 9h6v6H0V9Z"/></symbol><symbol id="dxre-align-floating-object-bottom-right" viewBox="0 0 16 16"><path d="M0 5v2h16V5H0Z"/><path d="M0 3h16V1H0v2Z"/><path d="M0 11h8V9H0v2Z"/><path d="M0 15h8v-2H0v2Z"/><path d="M16 15h-6V9h6v6Z"/></symbol><symbol id="dxre-align-floating-object-middle-center" viewBox="0 0 16 16"><path d="M16 3V1H0v2h16Z"/><path d="M16 13H0v2h16v-2Z"/><path d="M16 9h-3v2h3V9Z"/><path d="M16 5h-3v2h3V5Z"/><path d="M3 9H0v2h3V9Z"/><path d="M3 5H0v2h3V5Z"/><path d="M5 5h6v6H5V5Z"/></symbol><symbol id="dxre-align-floating-object-middle-left" viewBox="0 0 16 16"><path d="M16 3V1H0v2h16Z"/><path d="M16 15v-2H0v2h16Z"/><path d="M16 9H8v2h8V9Z"/><path d="M16 5H8v2h8V5Z"/><path d="M0 5h6v6H0V5Z"/></symbol><symbol id="dxre-align-floating-object-middle-right" viewBox="0 0 16 16"><g clip-path="url(#clip0_1133_23561)"><path d="M16 3V1H0v2h16Z"/><path d="M0 15h16v-2H0v2Z"/><path d="M0 11h8V9H0v2Z"/><path d="M0 7h8V5H0v2Z"/><path d="M16 11h-6V5h6v6Z"/></g><defs><clipPath id="clip0_1133_23561"><rect width="16" height="16" fill="white"/></clipPath></defs></symbol><symbol id="dxre-align-floating-object-top-center" viewBox="0 0 16 16"><g clip-path="url(#clip0_1133_23598)"><path d="M0 13v2h16v-2H0Z"/><path d="M16 9H0v2h16V9Z"/><path d="M16 1h-3v2h3V1Z"/><path d="M16 5h-3v2h3V5Z"/><path d="M3 1H0v2h3V1Z"/><path d="M3 5H0v2h3V5Z"/><path d="M5 1h6v6H5V1Z"/></g><defs><clipPath id="clip0_1133_23598"><rect width="16" height="16" fill="white"/></clipPath></defs></symbol><symbol id="dxre-align-floating-object-top-left" viewBox="0 0 16 16"><path d="M16 11V9H0v2h16Z"/><path d="M16 15v-2H0v2h16Z"/><path d="M16 5H8v2h8V5Z"/><path d="M16 1H8v2h8V1Z"/><path d="M0 1h6v6H0V1Z"/></symbol><symbol id="dxre-align-floating-object-top-right" viewBox="0 0 16 16"><path d="M16 11V9H0v2h16Z"/><path d="M0 13v2h16v-2H0Z"/><path d="M0 7h8V5H0v2Z"/><path d="M0 3h8V1H0v2Z"/><path d="M16 7h-6V1h6v6Z"/></symbol><symbol id="dxre-align-justify" viewBox="0 0 16 16"><g clip-path="url(#clip0_1133_23525)"><path d="M0 0h16v2H0V0Zm0 3.5h16v2H0v-2ZM0 7h16v2H0V7Zm0 3.5h16v2H0v-2ZM0 14h16v2H0v-2Z"/></g><defs><clipPath id="clip0_1133_23525"><rect width="16" height="16" fill="white"/></clipPath></defs></symbol><symbol id="dxre-align-left" viewBox="0 0 16 16"><g clip-path="url(#clip0_1133_23462)"><path d="M0 0h16v2H0V0Zm0 3.5h10v2H0v-2ZM0 7h16v2H0V7Zm0 3.5h10v2H0v-2ZM0 14h16v2H0v-2Z"/></g><defs><clipPath id="clip0_1133_23462"><rect width="16" height="16" fill="white"/></clipPath></defs></symbol><symbol id="dxre-align-middle-center" viewBox="0 0 16 16"><g clip-path="url(#clip0_1133_23403)"><path opacity="0.25" fill-rule="evenodd" clip-rule="evenodd" d="M1.778 0h12.444C15.2 0 16 .8 16 1.778v12.444C16 15.2 15.2 16 14.222 16H1.778C.8 16 0 15.2 0 14.222V1.778C0 .8.8 0 1.778 0Z"/><path fill-rule="evenodd" clip-rule="evenodd" d="M13 9H3V7h10v2Zm-2 3H5v-2h6v2ZM5 4h6v2H5V4Z"/></g><defs><clipPath id="clip0_1133_23403"><rect width="16" height="16" fill="white"/></clipPath></defs></symbol><symbol id="dxre-align-middle-left" viewBox="0 0 16 16"><g clip-path="url(#clip0_1133_23410)"><path opacity="0.25" fill-rule="evenodd" clip-rule="evenodd" d="M1.778 0h12.444C15.2 0 16 .8 16 1.778v12.444C16 15.2 15.2 16 14.222 16H1.778C.8 16 0 15.2 0 14.222V1.778C0 .8.8 0 1.778 0Z"/><path fill-rule="evenodd" clip-rule="evenodd" d="M12 9H2V7h10v2Zm-4 3H2v-2h6v2ZM2 4h6v2H2V4Z"/></g><defs><clipPath id="clip0_1133_23410"><rect width="16" height="16" fill="white"/></clipPath></defs></symbol><symbol id="dxre-align-middle-right" viewBox="0 0 16 16"><g clip-path="url(#clip0_1133_23417)"><path opacity="0.25" fill-rule="evenodd" clip-rule="evenodd" d="M1.778 0h12.444C15.2 0 16 .8 16 1.778v12.444C16 15.2 15.2 16 14.222 16H1.778C.8 16 0 15.2 0 14.222V1.778C0 .8.8 0 1.778 0Z"/><path fill-rule="evenodd" clip-rule="evenodd" d="M4 7h10v2H4V7Zm4 3h6v2H8v-2Zm6-4H8V4h6v2Z"/></g><defs><clipPath id="clip0_1133_23417"><rect width="16" height="16" fill="white"/></clipPath></defs></symbol><symbol id="dxre-align-right" viewBox="0 0 16 16"><g clip-path="url(#clip0_1133_23447)"><path d="M0 0h16v2H0V0Zm6 3.5h10v2H6v-2ZM0 7h16v2H0V7Zm6 3.5h10v2H6v-2ZM0 14h16v2H0v-2Z"/></g><defs><clipPath id="clip0_1133_23447"><rect width="16" height="16" fill="white"/></clipPath></defs></symbol><symbol id="dxre-align-table-cell-content" viewBox="0 0 16 16"><g clip-path="url(#clip0_1151_24610)"><path fill-rule="evenodd" clip-rule="evenodd" d="M16 2v12c0 1.1-.9 2-2 2H2c-1.1 0-2-.9-2-2V2C0 .9.9 0 2 0h12c1.1 0 2 .9 2 2Zm-2 0H2v12h12V2ZM6 4h4v2H6V4Z"/><path d="M12 7H4v2h8V7Z"/><path d="M10 10H6v2h4v-2Z"/></g><defs><clipPath id="clip0_1151_24610"><rect width="16" height="16" fill="white"/></clipPath></defs></symbol><symbol id="dxre-align-top-center" viewBox="0 0 16 16"><g clip-path="url(#clip0_1133_23424)"><path opacity="0.25" fill-rule="evenodd" clip-rule="evenodd" d="M1.778 0h12.444C15.2 0 16 .8 16 1.778v12.444C16 15.2 15.2 16 14.222 16H1.778C.8 16 0 15.2 0 14.222V1.778C0 .8.8 0 1.778 0Z"/><path fill-rule="evenodd" clip-rule="evenodd" d="M13 7H3V5h10v2Zm-2 3H5V8h6v2ZM5 2h6v2H5V2Z"/></g><defs><clipPath id="clip0_1133_23424"><rect width="16" height="16" fill="white"/></clipPath></defs></symbol><symbol id="dxre-align-top-left" viewBox="0 0 16 16"><g clip-path="url(#clip0_1133_23431)"><path opacity="0.25" fill-rule="evenodd" clip-rule="evenodd" d="M1.778 0h12.444C15.2 0 16 .8 16 1.778v12.444C16 15.2 15.2 16 14.222 16H1.778C.8 16 0 15.2 0 14.222V1.778C0 .8.8 0 1.778 0Z"/><path fill-rule="evenodd" clip-rule="evenodd" d="M12 7H2V5h10v2Zm-4 3H2V8h6v2ZM2 2h6v2H2V2Z"/></g><defs><clipPath id="clip0_1133_23431"><rect width="16" height="16" fill="white"/></clipPath></defs></symbol><symbol id="dxre-align-top-right" viewBox="0 0 16 16"><g clip-path="url(#clip0_1133_23438)"><path opacity="0.25" fill-rule="evenodd" clip-rule="evenodd" d="M1.778 0h12.444C15.2 0 16 .8 16 1.778v12.444C16 15.2 15.2 16 14.222 16H1.778C.8 16 0 15.2 0 14.222V1.778C0 .8.8 0 1.778 0Z"/><path fill-rule="evenodd" clip-rule="evenodd" d="M4 5h10v2H4V5Zm4 3h6v2H8V8Zm6-4H8V2h6v2Z"/></g><defs><clipPath id="clip0_1133_23438"><rect width="16" height="16" fill="white"/></clipPath></defs></symbol><symbol id="dxre-bold" viewBox="0 0 16 16"><path d="M11.6 7.79c1.083-.67 1.842-1.77 1.842-2.79 0-2.26-1.954-4-4.465-4H2v14h7.859C12.192 15 14 13.3 14 11.21c0-1.52-.96-2.82-2.4-3.42ZM5.349 3.5h3.349c.926 0 1.674.67 1.674 1.5s-.748 1.5-1.674 1.5h-3.35v-3Zm3.907 9H5.349v-3h3.907c.926 0 1.674.67 1.674 1.5s-.748 1.5-1.674 1.5Z"/></symbol><symbol id="dxre-bookmark" viewBox="0 0 16 16"><g clip-path="url(#clip0_1133_23473)"><path fill-rule="evenodd" clip-rule="evenodd" d="M16 14c0 1.1-.9 2-2 2H2c-1.1 0-2-.9-2-2V2C0 .9.9 0 2 0h12c1.1 0 2 .9 2 2v12ZM9 2v6L6.5 5.8 4 8V2H2v12h12V2H9Z"/></g><defs><clipPath id="clip0_1133_23473"><rect width="16" height="16" fill="white"/></clipPath></defs></symbol><symbol id="dxre-border-bottom" viewBox="0 0 16 16"><g clip-path="url(#clip0_1135_23702)"><path opacity="0.25" fill-rule="evenodd" clip-rule="evenodd" d="M14 2V0c1.1 0 2 .9 2 2h-2ZM2 2H0C0 .9.9 0 2 0v2Zm12 10.5v-2h2v2h-2ZM14 9V7h2v2h-2Zm2-3.5h-2v-2h2v2ZM12.5 2h-2V0h2v2ZM9 2H7V0h2v2ZM5.5 0v2h-2V0h2ZM2 3.5v2H0v-2h2ZM2 7v2H0V7h2Zm3.5 0v2h-2V7h2ZM7 10.5h2v2H7v-2ZM7 9V7h2v2H7Zm0-5.5h2v2H7v-2ZM12.5 7v2h-2V7h2ZM2 10.5v2H0v-2h2Z"/><path d="M0 14v2h16v-2H0Z"/></g><defs><clipPath id="clip0_1135_23702"><rect width="16" height="16" fill="white"/></clipPath></defs></symbol><symbol id="dxre-border-inside-horizontal" viewBox="0 0 16 16"><g clip-path="url(#clip0_1135_23741)"><path opacity="0.25" fill-rule="evenodd" clip-rule="evenodd" d="M14 2V0c1.1 0 2 .9 2 2h-2ZM2 2H0C0 .9.9 0 2 0v2Zm0 12v2c-1.1 0-2-.9-2-2h2Zm12 0h2c0 1.1-.9 2-2 2v-2Zm0-1.5v-2h2v2h-2Zm2-7h-2v-2h2v2ZM12.5 2h-2V0h2v2ZM9 2H7V0h2v2ZM5.5 0v2h-2V0h2ZM2 3.5v2H0v-2h2Zm5 7h2v2H7v-2Zm0-7h2v2H7v-2ZM9 16H7v-2h2v2Zm3.5 0h-2v-2h2v2Zm-7 0h-2v-2h2v2ZM2 10.5v2H0v-2h2Z"/><path d="M0 7v2h16V7H0Z"/></g><defs><clipPath id="clip0_1135_23741"><rect width="16" height="16" fill="white"/></clipPath></defs></symbol><symbol id="dxre-border-inside-vertical" viewBox="0 0 16 16"><g clip-path="url(#clip0_1135_23751)"><path opacity="0.25" fill-rule="evenodd" clip-rule="evenodd" d="M14 2V0c1.1 0 2 .9 2 2h-2ZM2 2H0C0 .9.9 0 2 0v2Zm0 12v2c-1.1 0-2-.9-2-2h2Zm12 0h2c0 1.1-.9 2-2 2v-2Zm0-1.5v-2h2v2h-2ZM14 9V7h2v2h-2Zm2-3.5h-2v-2h2v2ZM12.5 2h-2V0h2v2Zm-7-2v2h-2V0h2ZM2 3.5v2H0v-2h2ZM2 7v2H0V7h2Zm3.5 0v2h-2V7h2Zm7 0v2h-2V7h2Zm0 9h-2v-2h2v2Zm-7 0h-2v-2h2v2ZM2 10.5v2H0v-2h2Z"/><path d="M9 0H7v16h2V0Z"/></g><defs><clipPath id="clip0_1135_23751"><rect width="16" height="16" fill="white"/></clipPath></defs></symbol><symbol id="dxre-border-left" viewBox="0 0 16 16"><g clip-path="url(#clip0_1135_23715)"><path opacity="0.25" fill-rule="evenodd" clip-rule="evenodd" d="M14 2V0c1.1 0 2 .9 2 2h-2Zm0 12h2c0 1.1-.9 2-2 2v-2Zm0-1.5v-2h2v2h-2ZM14 9V7h2v2h-2Zm2-3.5h-2v-2h2v2ZM12.5 2h-2V0h2v2ZM9 2H7V0h2v2ZM5.5 0v2h-2V0h2Zm0 7v2h-2V7h2ZM7 10.5h2v2H7v-2ZM7 9V7h2v2H7Zm0-5.5h2v2H7v-2ZM12.5 7v2h-2V7h2ZM9 16H7v-2h2v2Zm3.5 0h-2v-2h2v2Zm-7 0h-2v-2h2v2Z"/><path d="M2 0H0v16h2V0Z"/></g><defs><clipPath id="clip0_1135_23715"><rect width="16" height="16" fill="white"/></clipPath></defs></symbol><symbol id="dxre-border-right" viewBox="0 0 16 16"><g clip-path="url(#clip0_1135_23724)"><path opacity="0.25" fill-rule="evenodd" clip-rule="evenodd" d="M2 2H0C0 .9.9 0 2 0v2Zm0 12v2c-1.1 0-2-.9-2-2h2ZM12.5 2h-2V0h2v2ZM9 2H7V0h2v2ZM5.5 0v2h-2V0h2ZM2 3.5v2H0v-2h2ZM2 7v2H0V7h2Zm3.5 0v2h-2V7h2ZM7 10.5h2v2H7v-2ZM7 9V7h2v2H7Zm0-5.5h2v2H7v-2ZM12.5 7v2h-2V7h2ZM9 16H7v-2h2v2Zm3.5 0h-2v-2h2v2Zm-7 0h-2v-2h2v2ZM2 10.5v2H0v-2h2Z"/><path d="M16 0h-2v16h2V0Z"/></g><defs><clipPath id="clip0_1135_23724"><rect width="16" height="16" fill="white"/></clipPath></defs></symbol><symbol id="dxre-border-top" viewBox="0 0 16 16"><g clip-path="url(#clip0_1135_23735)"><path opacity="0.25" fill-rule="evenodd" clip-rule="evenodd" d="M2 14v2c-1.1 0-2-.9-2-2h2Zm12 0h2c0 1.1-.9 2-2 2v-2Zm0-1.5v-2h2v2h-2ZM14 9V7h2v2h-2Zm2-3.5h-2v-2h2v2Zm-14-2v2H0v-2h2ZM2 7v2H0V7h2Zm3.5 0v2h-2V7h2ZM7 10.5h2v2H7v-2ZM7 9V7h2v2H7Zm0-5.5h2v2H7v-2ZM12.5 7v2h-2V7h2ZM9 16H7v-2h2v2Zm3.5 0h-2v-2h2v2Zm-7 0h-2v-2h2v2ZM2 10.5v2H0v-2h2Z"/><path d="M0 0v2h16V0H0Z"/></g><defs><clipPath id="clip0_1135_23735"><rect width="16" height="16" fill="white"/></clipPath></defs></symbol><symbol id="dxre-borders-all" viewBox="0 0 16 16"><g clip-path="url(#clip0_1135_23783)"><path fill-rule="evenodd" clip-rule="evenodd" d="M14 16c1.1 0 2-.9 2-2V2c0-1.1-.9-2-2-2H2C.9 0 0 .9 0 2v12c0 1.1.9 2 2 2h12Zm-5-2h5V9H9v5Zm-2 0V9H2v5h5ZM2 7h5V2H2v5Zm7-5h5v5H9V2Z"/></g><defs><clipPath id="clip0_1135_23783"><rect width="16" height="16" fill="white"/></clipPath></defs></symbol><symbol id="dxre-borders-inside" viewBox="0 0 16 16"><g clip-path="url(#clip0_1135_23762)"><path opacity="0.25" fill-rule="evenodd" clip-rule="evenodd" d="M14 2V0c1.1 0 2 .9 2 2h-2ZM2 2H0C0 .9.9 0 2 0v2Zm0 12v2c-1.1 0-2-.9-2-2h2Zm12 0h2c0 1.1-.9 2-2 2v-2Zm0-1.5v-2h2v2h-2ZM14 9V7h2v2h-2Zm2-3.5h-2v-2h2v2ZM12.5 2h-2V0h2v2ZM9 2H7V0h2v2ZM5.5 0v2h-2V0h2ZM2 3.5v2H0v-2h2ZM2 7v2H0V7h2Zm3.5 0v2h-2V7h2ZM7 10.5h2v2H7v-2ZM7 9V7h2v2H7Zm0-5.5h2v2H7v-2ZM12.5 7v2h-2V7h2ZM9 16H7v-2h2v2Zm3.5 0h-2v-2h2v2Zm-7 0h-2v-2h2v2ZM2 10.5v2H0v-2h2Z"/><path d="M7 0h2v7h7v2H9v7H7V9H0V7h7V0Z"/></g><defs><clipPath id="clip0_1135_23762"><rect width="16" height="16" fill="white"/></clipPath></defs></symbol><symbol id="dxre-borders-none" viewBox="0 0 16 16"><g clip-path="url(#clip0_1135_23694)"><path opacity="0.25" fill-rule="evenodd" clip-rule="evenodd" d="M14 2V0c1.1 0 2 .9 2 2h-2ZM2 2H0C0 .9.9 0 2 0v2Zm0 12v2c-1.1 0-2-.9-2-2h2Zm12 0h2c0 1.1-.9 2-2 2v-2Zm0-1.5v-2h2v2h-2ZM14 9V7h2v2h-2Zm2-3.5h-2v-2h2v2ZM12.5 2h-2V0h2v2ZM9 2H7V0h2v2ZM5.5 0v2h-2V0h2ZM2 3.5v2H0v-2h2ZM2 7v2H0V7h2Zm3.5 0v2h-2V7h2ZM7 10.5h2v2H7v-2ZM7 9V7h2v2H7Zm0-5.5h2v2H7v-2ZM12.5 7v2h-2V7h2ZM9 16H7v-2h2v2Zm3.5 0h-2v-2h2v2Zm-7 0h-2v-2h2v2ZM2 10.5v2H0v-2h2Z"/></g><defs><clipPath id="clip0_1135_23694"><rect width="16" height="16" fill="white"/></clipPath></defs></symbol><symbol id="dxre-borders-outside" viewBox="0 0 16 16"><g clip-path="url(#clip0_1135_23770)"><path opacity="0.25" fill-rule="evenodd" clip-rule="evenodd" d="M5.5 7v2h-2V7h2ZM7 10.5h2v2H7v-2ZM7 9V7h2v2H7Zm0-5.5h2v2H7v-2ZM12.5 7v2h-2V7h2Z"/><path fill-rule="evenodd" clip-rule="evenodd" d="M14 16H2c-1.1 0-2-.9-2-2V2C0 .9.9 0 2 0h12c1.1 0 2 .9 2 2v12c0 1.1-.9 2-2 2Zm0-14H2v12h12V2Z"/></g><defs><clipPath id="clip0_1135_23770"><rect width="16" height="16" fill="white"/></clipPath></defs></symbol><symbol id="dxre-change-text-case" viewBox="0 0 16 16"><path d="M3.556 3 0 13h1.689l.889-2.583H6.4L7.289 13h1.6L5.333 3H3.556Zm-.534 6 1.422-4.167h.09L5.955 9H3.022Zm12.711 2.083V7.75c0-.75-.266-1.333-.8-1.75-.533-.417-1.155-.583-2.044-.583-.533 0-1.067.083-1.511.333-.445.167-.8.417-1.067.833-.267.334-.444.667-.444 1.084H11.2c0-.334.178-.584.444-.75.356-.167.712-.334 1.156-.334.533 0 .889.084 1.156.334.266.25.444.583.444 1V8.5h-1.244c-1.067 0-1.956.167-2.49.583-.622.417-.888 1-.888 1.75 0 .584.266 1.167.71 1.5.445.417 1.068.584 1.868.584s1.51-.334 2.133-.917c.089.333.089.583.178.75H16v-.083c-.178-.417-.267-.917-.267-1.584Zm-1.244-.25c-.178.25-.445.5-.8.667-.356.167-.711.25-1.156.25-.444 0-.8-.083-1.066-.333-.267-.167-.445-.417-.445-.834 0-.833.8-1.166 2.4-1.166h.978v1.416h.089Z"/></symbol><symbol id="dxre-clear-formatting" viewBox="0 0 16 16"><path opacity="0.25" fill-rule="evenodd" clip-rule="evenodd" d="M12 10 6 5l2.5-3c.689-.83 1.68-1.196 2.5-.5l3.5 3c1 1 .5 2 0 2.5L12 10Z"/><path fill-rule="evenodd" clip-rule="evenodd" d="m12 10-3.5 4c-1.5 1.5-4 1-5 0L2 12.5c-.754-.757-1.11-1.883 0-3L6 5l6 5Z"/></symbol><symbol id="dxre-close-header-and-footer" viewBox="0 0 16 16"><g clip-path="url(#clip0_1133_23482)"><path fill-rule="evenodd" clip-rule="evenodd" d="M8 0C3.6 0 0 3.6 0 8s3.6 8 8 8 8-3.6 8-8-3.6-8-8-8Zm4 10.8L10.8 12 8 9.2 5.2 12 4 10.8 6.8 8 4 5.2 5.2 4 8 6.8 10.8 4 12 5.2 9.2 8l2.8 2.8Z"/></g><defs><clipPath id="clip0_1133_23482"><rect width="16" height="16" fill="white"/></clipPath></defs></symbol><symbol id="dxre-columns-one" viewBox="0 0 16 16"><path d="M0 1v2h16V1H0Zm0 6h16V5H0v2Zm0 3.889h16V9H0v1.889Zm0 4.11h16v-2H0v2Z"/></symbol><symbol id="dxre-columns-three" viewBox="0 0 16 16"><g clip-path="url(#clip0_1133_23625)"><path d="M0 3h3V1H0v2Zm5 0h6V1H5v2ZM0 7h3V5H0v2Zm5 0h6V5H5v2Zm-5 4h3V9H0v2Zm5 0h6V9H5v2Zm-5 4h3v-2H0v2Zm5 0h6v-2H5v2Zm8-14v2h3V1h-3Zm0 6h3V5h-3v2Zm0 4h3V9h-3v2Zm0 4h3v-2h-3v2Z"/></g><defs><clipPath id="clip0_1133_23625"><rect width="16" height="16" fill="white"/></clipPath></defs></symbol><symbol id="dxre-columns-two" viewBox="0 0 16 16"><path d="M0 3h7V1H0v2Zm9-2v2h7V1H9ZM0 7h7V5H0v2Zm9 0h7V5H9v2Zm-9 4h7V9H0v2Zm9 0h7V9H9v2Zm-9 4h7v-2H0v2Zm9 0h7v-2H9v2Z"/></symbol><symbol id="dxre-copy" viewBox="0 0 16 16"><g clip-path="url(#clip0_1153_24759)"><path d="M3 14h7V5H3m0-2h7c1.1 0 2 .9 2 2v9c0 1.1-.9 2-2 2H3c-1.1 0-2-.9-2-2V5c0-1.1.9-2 2-2Zm4-3h6c1.1 0 2 .9 2 2v8c0 2-2 2-2 2V2H5s0-2 2-2Z"/></g><defs><clipPath id="clip0_1153_24759"><rect width="16" height="16" fill="white"/></clipPath></defs></symbol><symbol id="dxre-cut" viewBox="0 0 16 16"><g clip-path="url(#clip0_1153_25028)"><path d="m5.6 7.2 1.6-1.6-4-5.6h-.8l3.2 7.2Zm8.8 5.6c0 .9-.7 1.6-1.6 1.6-.9 0-1.6-.7-1.6-1.6 0-.9.7-1.6 1.6-1.6.9 0 1.6.7 1.6 1.6Zm-9.6 0c0 .9-.7 1.6-1.6 1.6-.9 0-1.6-.7-1.6-1.6 0-.9.7-1.6 1.6-1.6.9 0 1.6.7 1.6 1.6Zm-.3-2.9c-.4-.2-.8-.3-1.3-.3C1.4 9.6 0 11 0 12.8 0 14.6 1.4 16 3.2 16c1.8 0 3.2-1.4 3.2-3.2 0-.5-.1-.9-.3-1.3L8 9.6l1.9 1.9c-.2.4-.3.8-.3 1.3 0 1.8 1.4 3.2 3.2 3.2 1.8 0 3.2-1.4 3.2-3.2 0-1.8-1.4-3.2-3.2-3.2-.5 0-.9.1-1.3.3L9.6 8l4-8h-.8L4.5 9.9Z"/></g><defs><clipPath id="clip0_1153_25028"><rect width="16" height="16" fill="white"/></clipPath></defs></symbol><symbol id="dxre-delete-table-cells" viewBox="0 0 16 16"><g clip-path="url(#clip0_1137_23905)"><g opacity="0.25"><path d="M13 5h-3v3h3V5Z"/><path d="M13 0h-3v3h3V0Z"/><path d="M8 10H5v3h3v-3Z"/><path d="M8 0H5v3h3V0Z"/><path d="M3 10H0v3h3v-3Z"/><path d="M3 5H0v3h3V5Z"/><path d="M3 0H0v3h3V0Z"/></g><path d="M8 5H5v3h3V5Z"/><path d="M14.886 16 16 14.886 14.114 13 16 11.114 14.886 10 13 11.886 11.114 10 10 11.114 11.886 13 10 14.886 11.114 16 13 14.114 14.886 16Z"/></g><defs><clipPath id="clip0_1137_23905"><rect width="16" height="16" fill="white"/></clipPath></defs></symbol><symbol id="dxre-delete-table-columns" viewBox="0 0 16 16"><g clip-path="url(#clip0_1137_23912)"><g opacity="0.25"><path d="M13 5h-3v3h3V5Z"/><path d="M13 0h-3v3h3V0Z"/><path d="M3 10H0v3h3v-3Z"/><path d="M3 5H0v3h3V5Z"/><path d="M3 0H0v3h3V0Z"/></g><path d="M8 0H5v13h3V0Z"/><path d="M14.886 16 16 14.886 14.114 13 16 11.114 14.886 10 13 11.886 11.114 10 10 11.114 11.886 13 10 14.886 11.114 16 13 14.114 14.886 16Z"/></g><defs><clipPath id="clip0_1137_23912"><rect width="16" height="16" fill="white"/></clipPath></defs></symbol><symbol id="dxre-delete-table-rows" viewBox="0 0 16 16"><g clip-path="url(#clip0_1137_23919)"><g opacity="0.25"><path d="M13 0h-3v3h3V0Z"/><path d="M8 10H5v3h3v-3Z"/><path d="M8 0H5v3h3V0Z"/><path d="M3 10H0v3h3v-3Z"/><path d="M3 0H0v3h3V0Z"/></g><path d="M13 5H0v3h13V5Z"/><path d="M14.886 16 16 14.886 14.114 13 16 11.114 14.886 10 13 11.886 11.114 10 10 11.114 11.886 13 10 14.886 11.114 16 13 14.114 14.886 16Z"/></g><defs><clipPath id="clip0_1137_23919"><rect width="16" height="16" fill="white"/></clipPath></defs></symbol><symbol id="dxre-delete-table" viewBox="0 0 16 16"><g clip-path="url(#clip0_1137_23899)"><path d="M13 5h-3v3h3V5Z"/><path d="M13 0h-3v3h3V0Z"/><path d="M8 10H5v3h3v-3Z"/><path d="M8 5H5v3h3V5Z"/><path d="M8 0H5v3h3V0Z"/><path d="M3 10H0v3h3v-3Z"/><path d="M3 5H0v3h3V5Z"/><path d="M3 0H0v3h3V0Z"/><path d="M14.886 16 16 14.886 14.114 13 16 11.114 14.886 10 13 11.886 11.114 10 10 11.114 11.886 13 10 14.886 11.114 16 13 14.114 14.886 16Z"/></g><defs><clipPath id="clip0_1137_23899"><rect width="16" height="16" fill="white"/></clipPath></defs></symbol><symbol id="dxre-different-first-page" viewBox="0 0 16 16"><g clip-path="url(#clip0_1144_24573)"><path opacity="0.25" d="M12 10h3c.6 0 1-.4 1-1V1c0-.6-.4-1-1-1H9c-.6 0-1 .4-1 1v2h3c.6 0 1 .4 1 1v6Z"/><path opacity="0.5" d="M8 13h3c.6 0 1-.4 1-1V4c0-.6-.4-1-1-1H5c-.6 0-1 .4-1 1v2h3c.6 0 1 .4 1 1v6Z"/><path fill-rule="evenodd" clip-rule="evenodd" d="M0 15c0 .6.4 1 1 1h6c.6 0 1-.4 1-1V7c0-.6-.4-1-1-1H1c-.6 0-1 .4-1 1v8Zm4-6h1v4H4v-2H3v-1l1-1Z"/></g><defs><clipPath id="clip0_1144_24573"><rect width="16" height="16" fill="white"/></clipPath></defs></symbol><symbol id="dxre-different-odd-even-pages" viewBox="0 0 16 16"><g clip-path="url(#clip0_1144_24550)"><g opacity="0.25"><path d="M11 3H8V1c0-.6.4-1 1-1h6c.6 0 1 .4 1 1v8c0 .6-.4 1-1 1h-3V4c0-.6-.4-1-1-1Z"/><path d="M7 16H1c-.6 0-1-.4-1-1V7c0-.6.4-1 1-1h6c.6 0 1 .4 1 1v8c0 .6-.4 1-1 1Z"/></g><path d="M4 6V4c0-.6.4-1 1-1h6c.6 0 1 .4 1 1v8c0 .6-.4 1-1 1H8v-2h2V5H6v1H4Z"/></g><defs><clipPath id="clip0_1144_24550"><rect width="16" height="16" fill="white"/></clipPath></defs></symbol><symbol id="dxre-download" viewBox="0 0 16 16"><g clip-path="url(#clip0_1135_23819)"><path d="M1 16h14v-2H1v2ZM15 6h-4V0H5v6H1l7 6 7-6Z"/></g><defs><clipPath id="clip0_1135_23819"><rect width="16" height="16" fill="white"/></clipPath></defs></symbol><symbol id="dxre-first" viewBox="0 0 16 16"><path d="M4 2H2v12h2M14 2 5.5 8l8.5 6V2Z"/></symbol><symbol id="dxre-floating-object-bring-forward" viewBox="0 0 16 16"><g clip-path="url(#clip0_1143_24404)"><path opacity="0.25" fill-rule="evenodd" clip-rule="evenodd" d="M15 12h-3v-2h2V2H6v2H4V1c0-.6.4-1 1-1h10c.6 0 1 .4 1 1v10c0 .6-.4 1-1 1Z"/><path fill-rule="evenodd" clip-rule="evenodd" d="M11 16H1c-.6 0-1-.4-1-1V5c0-.6.4-1 1-1h10c.6 0 1 .4 1 1v10c0 .6-.4 1-1 1ZM10 6H2v8h8V6Z"/></g><defs><clipPath id="clip0_1143_24404"><rect width="16" height="16" fill="white"/></clipPath></defs></symbol><symbol id="dxre-floating-object-bring-in-front-of-text" viewBox="0 0 16 16"><g clip-path="url(#clip0_1143_24420)"><g opacity="0.25"><path d="M8 12h7c.6 0 1-.4 1-1V1c0-.6-.4-1-1-1H5c-.6 0-1 .4-1 1v7h2V2h8v8H8v2Z"/><path d="M7 4h6v1H7V4Z"/><path d="M13 7v1h-2V7h2Z"/></g><path fill-rule="evenodd" clip-rule="evenodd" d="M9 16H1c-.6 0-1-.4-1-1V7c0-.6.4-1 1-1h8c.6 0 1 .4 1 1v8c0 .6-.4 1-1 1ZM8 8H2v6h6V8Z"/></g><defs><clipPath id="clip0_1143_24420"><rect width="16" height="16" fill="white"/></clipPath></defs></symbol><symbol id="dxre-floating-object-bring-to-front" viewBox="0 0 16 16"><g clip-path="url(#clip0_1143_24494)"><g opacity="0.25"><path d="M15 7.5h-2.5v-2H14V2h-3.5v1.5h-2V1c0-.6.4-1 1-1H15c.6 0 1 .4 1 1v5.5c0 .6-.4 1-1 1Z"/><path d="M1 8.5h2.5v2H2V14h3.5v-1.5h2V15c0 .6-.4 1-1 1H1c-.6 0-1-.4-1-1V9.5c0-.6.4-1 1-1Z"/></g><path fill-rule="evenodd" clip-rule="evenodd" d="M11.5 12.5h-7c-.6 0-1-.4-1-1v-7c0-.6.4-1 1-1h7c.6 0 1 .4 1 1v7c0 .6-.4 1-1 1Zm-1-7h-5v5h5v-5Z"/></g><defs><clipPath id="clip0_1143_24494"><rect width="16" height="16" fill="white"/></clipPath></defs></symbol><symbol id="dxre-floating-object-send-backward" viewBox="0 0 16 16"><g clip-path="url(#clip0_1143_24484)"><path opacity="0.25" fill-rule="evenodd" clip-rule="evenodd" d="M11 16H1c-.6 0-1-.4-1-1V5c0-.6.4-1 1-1h10c.6 0 1 .4 1 1v10c0 .6-.4 1-1 1ZM10 6H2v8h8V6Z"/><path fill-rule="evenodd" clip-rule="evenodd" d="M15 12h-3v-2h2V2H6v2H4V1c0-.6.4-1 1-1h10c.6 0 1 .4 1 1v10c0 .6-.4 1-1 1Z"/></g><defs><clipPath id="clip0_1143_24484"><rect width="16" height="16" fill="white"/></clipPath></defs></symbol><symbol id="dxre-floating-object-send-behind-text" viewBox="0 0 16 16"><g clip-path="url(#clip0_1143_24474)"><path opacity="0.25" d="M1 16h8c.6 0 1-.4 1-1v-3H8v2H2V8h2V6H1c-.6 0-1 .4-1 1v8c0 .6.4 1 1 1Z"/><path d="M7 4h6v1H7V4Z"/><path d="M13 7H7v1h6V7Z"/><path fill-rule="evenodd" clip-rule="evenodd" d="M15 12H5c-.6 0-1-.4-1-1V1c0-.6.4-1 1-1h10c.6 0 1 .4 1 1v10c0 .6-.4 1-1 1ZM14 2H6v8h8V2Z"/></g><defs><clipPath id="clip0_1143_24474"><rect width="16" height="16" fill="white"/></clipPath></defs></symbol><symbol id="dxre-floating-object-send-to-back" viewBox="0 0 16 16"><g clip-path="url(#clip0_1144_24527)"><g opacity="0.25"><path d="M8.5 3.5h-4c-.6 0-1 .4-1 1v4h2v-3h3v-2Z"/><path d="M10.5 7.5v3h-3v2H4.487 11.5c.6 0 1-.4 1-1v-4h-2Z"/></g><path fill-rule="evenodd" clip-rule="evenodd" d="M9.5 7.5H15c.6 0 1-.4 1-1V1c0-.6-.4-1-1-1H9.5c-.6 0-1 .4-1 1v5.5c0 .6.4 1 1 1Zm1-5.5H14v3.5h-3.5V2Z"/><path fill-rule="evenodd" clip-rule="evenodd" d="M1 16h5.5c.6 0 1-.4 1-1V9.5c0-.6-.4-1-1-1H1c-.6 0-1 .4-1 1V15c0 .6.4 1 1 1Zm1-5.5h3.5V14H2v-3.5Z"/></g><defs><clipPath id="clip0_1144_24527"><rect width="16" height="16" fill="white"/></clipPath></defs></symbol><symbol id="dxre-font-color" viewBox="0 0 16 16"><path d="M2 14h2.215l1.2-3.343h5.17l1.2 3.343H14L9.108 1H6.8L2 14Zm4.062-5.2 1.846-5.386H8L9.846 8.8H6.062Z"/></symbol><symbol id="dxre-font-size-decrease" viewBox="0 0 16 16"><path d="m15 2-1 1V0h-2v3l-1-1-1 1 3 3 3-3-1-1Z"/><path fill-rule="evenodd" clip-rule="evenodd" d="M0 13 3.6 2h1.8L9 13H7.38l-.9-2.842H2.61L1.71 13H0Zm4.5-8.983L3.06 8.6h2.88L4.5 4.017Z"/></symbol><symbol id="dxre-font-size-increase" viewBox="0 0 16 16"><path fill-rule="evenodd" clip-rule="evenodd" d="M0 13 4.892 0H7.2L12 13H9.785l-1.2-3.343h-5.17L2.215 13H0ZM5.908 2.414 4.062 7.8h3.784L6 2.414h-.092Z"/><path d="m13 0-3 3 1 1 1-1v3h2V3l1 1 1-1-3-3Z"/></symbol><symbol id="dxre-font" viewBox="0 0 16 16"><path d="M2 14h2.215l1.2-3.343h5.17l1.2 3.343H14L9.108 1H6.8L2 14Zm4.062-5.2 1.846-5.386H8L9.846 8.8H6.062Z"/></symbol><symbol id="dxre-footer" viewBox="0 0 16 16"><g clip-path="url(#clip0_1133_23648)"><path opacity="0.25" d="M12 9V8H4v1h8ZM4 7h8V6H4v1Zm0-2h8V4H4v1Z"/><path fill-rule="evenodd" clip-rule="evenodd" d="M16 2v12c0 1.1-.9 2-2 2H2c-1.1 0-2-.9-2-2V2C0 .9.9 0 2 0h12c1.1 0 2 .9 2 2Zm-2 0H2v12h12V2ZM4 10h8v2H4v-2Z"/></g><defs><clipPath id="clip0_1133_23648"><rect width="16" height="16" fill="white"/></clipPath></defs></symbol><symbol id="dxre-full-screen" viewBox="0 0 16 16"><path fill-rule="evenodd" clip-rule="evenodd" d="M15 15h-5v-2h3v-3h2v5ZM13 3h-3V1h5v5h-2V3ZM3 3v3H1V1h5v2H3Zm0 10h3v2H1v-5h2v3Z"/></symbol><symbol id="dxre-go-to-footer" viewBox="0 0 16 16"><g clip-path="url(#clip0_1140_24141)"><path opacity="0.25" fill-rule="evenodd" clip-rule="evenodd" d="M4 7h6v1H4V7Zm0-3h6v1H4V4Zm0 10H2c-1.1 0-2-.9-2-2V2C0 .9.9 0 2 0h10c1.1 0 2 .9 2 2v8h-2V2H2v10h2v2Z"/><path fill-rule="evenodd" clip-rule="evenodd" d="M16 10v4c0 1.1-.9 2-2 2H6c-1.1 0-2-.9-2-2v-4h12Zm-2 2H6v2h8v-2Z"/></g><defs><clipPath id="clip0_1140_24141"><rect width="16" height="16" fill="white"/></clipPath></defs></symbol><symbol id="dxre-go-to-header" viewBox="0 0 16 16"><g clip-path="url(#clip0_1140_24150)"><path opacity="0.25" fill-rule="evenodd" clip-rule="evenodd" d="M4 8h6v1H4V8Zm0 3h6v1H4v-1Zm0-7H2v10h10V6h2v8c0 1.1-.9 2-2 2H2c-1.1 0-2-.9-2-2V4c0-1.1.9-2 2-2h2v2Z"/><path fill-rule="evenodd" clip-rule="evenodd" d="M4 6V2c0-1.1.9-2 2-2h8c1.1 0 2 .9 2 2v4H4Zm10-4H6v2h8V2Z"/></g><defs><clipPath id="clip0_1140_24150"><rect width="16" height="16" fill="white"/></clipPath></defs></symbol><symbol id="dxre-go-to-next-header-footer" viewBox="0 0 16 16"><g clip-path="url(#clip0_1140_24165)"><g opacity="0.25"><path d="M10 8H4v1h6V8Z"/><path d="M10 12v-1H4v1h6Z"/><path d="M10 14v2H2c-1.1 0-2-.9-2-2V4c0-1.1.9-2 2-2h2v2H2v10h8Z"/><path d="M14 8V6h-2v2h2Z"/></g><path fill-rule="evenodd" clip-rule="evenodd" d="M4 2v4h12V2c0-1.1-.9-2-2-2H6C4.9 0 4 .9 4 2Zm2 0h8v2H6V2Z"/><path d="m15 13-3-3v6l3-3Z"/></g><defs><clipPath id="clip0_1140_24165"><rect width="16" height="16" fill="white"/></clipPath></defs></symbol><symbol id="dxre-go-to-previous-header-footer" viewBox="0 0 16 16"><g clip-path="url(#clip0_1140_24175)"><g opacity="0.25"><path d="M10 8H4v1h6V8Z"/><path d="M10 12v-1H4v1h6Z"/><path d="M10 14v2H2c-1.1 0-2-.9-2-2V4c0-1.1.9-2 2-2h2v2H2v10h8Z"/><path d="M14 8V6h-2v2h2Z"/></g><path fill-rule="evenodd" clip-rule="evenodd" d="M4 6V2c0-1.1.9-2 2-2h8c1.1 0 2 .9 2 2v4H4Zm10-4H6v2h8V2Z"/><path d="m15 16-3-3 3-3v6Z"/></g><defs><clipPath id="clip0_1140_24175"><rect width="16" height="16" fill="white"/></clipPath></defs></symbol><symbol id="dxre-header" viewBox="0 0 16 16"><g clip-path="url(#clip0_1133_23655)"><path opacity="0.25" d="M12 12v-1H4v1h8Zm-8-2h8V9H4v1Zm0-2h8V7H4v1Z"/><path fill-rule="evenodd" clip-rule="evenodd" d="M16 2v12c0 1.1-.9 2-2 2H2c-1.1 0-2-.9-2-2V2C0 .9.9 0 2 0h12c1.1 0 2 .9 2 2Zm-2 0H2v12h12V2ZM4 4h8v2H4V4Z"/></g><defs><clipPath id="clip0_1133_23655"><rect width="16" height="16" fill="white"/></clipPath></defs></symbol><symbol id="dxre-highlight" viewBox="0 0 16 16"><path d="m0 15 2.791-2.81a1.583 1.583 0 0 1 0-2.208L6.58 6.068l4.387 4.416-3.788 3.914c-.599.602-1.496.602-2.094 0L4.287 15H0ZM11.165 1.452a1.557 1.557 0 0 1 2.193 0l2.193 2.208a1.583 1.583 0 0 1 0 2.207L12.162 9.28 7.776 4.864l3.39-3.412Z"/></symbol><symbol id="dxre-hyperlink" viewBox="0 0 16 16"><path d="M4.444 3h2.667v1.846H4.444c-1.51 0-2.666 1.2-2.666 2.77 0 1.569 1.155 2.769 2.666 2.769h2.667v1.846H4.444C1.956 12.23 0 10.2 0 7.615 0 5.031 1.956 3 4.444 3Zm7.112 0C14.044 3 16 5.03 16 7.615h-1.778c0-1.569-1.155-2.769-2.666-2.769H8.889V3h2.667ZM5.333 6.692h5.334v1.846H5.333V6.692Zm6.223.923h1.777v2.77H16v1.846h-2.667V15h-1.777v-2.77H8.889v-1.845h2.667v-2.77Z"/></symbol><symbol id="dxre-indent-decrease" viewBox="0 0 16 16"><g clip-path="url(#clip0_1133_23638)"><path d="M8 9h8V7H8m0-1.5h8v-2H8M0 0v2h16V0M0 16h16v-2H0m0-6 4 4V4m4 8.5h8v-2H8v2Z"/></g><defs><clipPath id="clip0_1133_23638"><rect width="16" height="16" fill="white"/></clipPath></defs></symbol><symbol id="dxre-indent-increase" viewBox="0 0 16 16"><g clip-path="url(#clip0_1133_23631)"><path d="M8 7H0v2h8m0-5.5H0v2h8M0 0v2h16V0m0 14H0v2h16M12 4v8l4-4m-8 2.5H0v2h8v-2Z"/></g><defs><clipPath id="clip0_1133_23631"><rect width="16" height="16" fill="white"/></clipPath></defs></symbol><symbol id="dxre-insert-caption" viewBox="0 0 16 16"><g clip-path="url(#clip0_1144_24512)"><path opacity="0.2" d="M6 8V4h6v4H6Z"/><path d="M4 16h10c1.1 0 2-.9 2-2V2c0-1.1-.9-2-2-2H4C2.9 0 2 .9 2 2v4h2V2h10v12H2c0 1.1.9 2 2 2Z"/><path d="M12 10H6v2h6v-2Z"/><path d="m2 7 3 3-3 3v-2H0V9h2V7Z"/></g><defs><clipPath id="clip0_1144_24512"><rect width="16" height="16" fill="white"/></clipPath></defs></symbol><symbol id="dxre-insert-column-break" viewBox="0 0 16 16"><path d="M13 16H6v-2h7V5l-3-3H3v6H1V2c0-1.1.9-2 2-2h8l4 4v10c0 1.1-.9 2-2 2Z"/><path d="M6 10h5v2H6v-2Z"/><path d="M11 7H5v2h6V7Z"/><path d="M5 4h6v2H5V4Z"/><path d="m1 10 3 3-3 3v-6Z"/></symbol><symbol id="dxre-insert-data-field" viewBox="0 0 16 16"><g clip-path="url(#clip0_1143_24358)"><g opacity="0.25"><path d="M7 14H1v2h6v-2Z"/><path d="M15 14H9v2h6v-2Z"/><path d="M7 10H1v2h6v-2Z"/><path d="M15 10H9v2h6v-2Z"/></g><path d="M13.375 0H2.625C1.731 0 1 .72 1 1.6v4.8C1 7.28 1.731 8 2.625 8h10.75C14.269 8 15 7.28 15 6.4V1.6c0-.88-.731-1.6-1.625-1.6ZM11 5H9v2H7V5H5V3h2V1h2v2h2v2Z"/></g><defs><clipPath id="clip0_1143_24358"><rect width="16" height="16" fill="white"/></clipPath></defs></symbol><symbol id="dxre-insert-equation-caption" viewBox="0 0 16 16"><path d="M8.035 4.532H9.55l-.303 1.204H7.732l-1.514 5.916c-.706 5.415-9.286 3.008-5.047.903.808-.201 1.11.802 1.817 1.002 1.11 0 1.918-7.12 2.322-7.821H4.098L4.3 4.532h1.212c.1-2.808 3.936-4.613 6.157-2.808 1.01 1.906-1.615 2.407-2.423.903-1.009-.401-1.11 1.203-1.21 1.905Zm2.726 4.814.908 1.805c.908-1.204 1.716-2.507 3.028-1.705.505.401.202 1.103-.404 1.303-.1 0-.807.1-.908.1-.707.302-.606.502-1.312 1.304.504 1.003 1.11 2.507 2.22 1.304l.707.702c-1.615 1.504-3.735.902-4.34-1.103-.707 1.103-1.716 2.306-3.13 1.805-.504-.3-.504-1.203.101-1.404 1.11-.1 1.817-.401 2.423-1.604l-.505-1.204h-.908l.202-1.003c.706.1 1.21-.501 1.918-.3Z"/></symbol><symbol id="dxre-insert-figure-caption" viewBox="0 0 16 16"><path d="M12 5.5a1.5 1.5 0 1 1-3 0 1.5 1.5 0 0 1 3 0Z"/><path d="M5 7 3 9v3h7L5 7Z"/><path d="m10 9 3 3h-2l-2-2 1-1Z"/><path fill-rule="evenodd" clip-rule="evenodd" d="M0 3a2 2 0 0 1 2-2h12a2 2 0 0 1 2 2v10a2 2 0 0 1-2 2H2a2 2 0 0 1-2-2V3Zm2 0h12v10H2V3Z"/></symbol><symbol id="dxre-insert-image" viewBox="0 0 16 16"><path d="M12 5.5a1.5 1.5 0 1 1-3 0 1.5 1.5 0 0 1 3 0Z"/><path d="M5 7 3 9v3h7L5 7Z"/><path d="m10 9 3 3h-2l-2-2 1-1Z"/><path fill-rule="evenodd" clip-rule="evenodd" d="M0 3a2 2 0 0 1 2-2h12a2 2 0 0 1 2 2v10a2 2 0 0 1-2 2H2a2 2 0 0 1-2-2V3Zm2 0h12v10H2V3Z"/></symbol><symbol id="dxre-insert-merge-field" viewBox="0 0 16 16"><path opacity="0.25" fill-rule="evenodd" clip-rule="evenodd" d="M14 16H9c-1.1 0-2-.9-2-2v-1h2v1h5V7h-2V5h2c1.1 0 2 .9 2 2v7c0 1.1-.9 2-2 2Z"/><path fill-rule="evenodd" clip-rule="evenodd" d="M9 7H7v2.5h3V8l3 2.5-3 2.5v-1.5H5V7H3c-1.1 0-2-.9-2-2V3c0-1.1.9-2 2-2h6c1.1 0 2 .9 2 2v2c0 1.1-.9 2-2 2Zm0-4H3v2h6V3Z"/></symbol><symbol id="dxre-insert-page-break" viewBox="0 0 16 16"><g clip-path="url(#clip0_1151_24633)"><path d="M14 0v5H5V0H3v5c0 1.1.9 2 2 2h9c1.1 0 2-.9 2-2V0h-2Z"/><path d="m0 5 3 3-3 3V5Z"/><path d="M14 16v-2h-3v-3H5v5H3v-5c0-1.1.9-2 2-2h7l4 4v3h-2Z"/></g><defs><clipPath id="clip0_1151_24633"><rect width="16" height="16" fill="white"/></clipPath></defs></symbol><symbol id="dxre-insert-page-count" viewBox="0 0 16 16"><g clip-path="url(#clip0_1153_24904)"><path d="M6 0h8c1.1 0 2 .9 2 2v7c0 2-2 2-2 2V2H4s0-2 2-2Z"/><path d="M7.105 10.58H5.329l.541-2.07h1.8l-.565 2.07Z"/><path fill-rule="evenodd" clip-rule="evenodd" d="M2 3h9c1.1 0 2 .9 2 2v9c0 1.1-.9 2-2 2H2c-1.1 0-2-.9-2-2V5c0-1.1.9-2 2-2Zm7.2 5.51h1.53L11 7.07H9.441L10.1 5H8.57l-.63 2.07H6.18L6.77 5H5.15l-.54 2.07H2.9l-.36 1.44h1.71l-.45 2.07H2.36L2 12.02h1.44L2.9 14h1.473l.597-1.98h1.8L6.23 14h1.62l.53-1.98h1.72l.27-1.44H8.668L9.2 8.51Z"/></g><defs><clipPath id="clip0_1153_24904"><rect width="16" height="16" fill="white"/></clipPath></defs></symbol><symbol id="dxre-insert-page-number" viewBox="0 0 16 16"><path d="M6.699 9.2h1.973L9.3 6.9h-2l-.601 2.3ZM13 1H3c-1.1 0-2 .9-2 2v10c0 1.1.9 2 2 2h10c1.1 0 2-.9 2-2V3c0-1.1-.9-2-2-2Zm-.3 5.9H11l-.591 2.3H12.3l-.3 1.6h-1.912L9.5 13H7.7l.6-2.2h-2L5.637 13H4l.6-2.2H3l.4-1.6H5l.5-2.3H3.6L4 5.3h1.9L6.5 3h1.8l-.655 2.3H9.6l.7-2.3H12l-.732 2.3H13l-.3 1.6Z"/></symbol><symbol id="dxre-insert-section-break-even-page" viewBox="0 0 16 16"><g clip-path="url(#clip0_1153_24814)"><g opacity="0.25"><path d="M14 5V0h2v5c0 1.1-.9 2-2 2H5c-1.1 0-2-.9-2-2V0h2v5h9Z"/><path d="M14 16v-5H5v5H3v-5c0-1.1.9-2 2-2h9c1 0 2 1 2 2v5h-2Z"/></g><path d="M8 2.4V4h3v-.8H9.5v-.8l.345.001c.646.003.93.005 1.056-.136.099-.11.099-.31.099-.665V.8c0-.317 0-.509-.094-.624C10.764 0 10.405 0 9.5 0H8v.8h1.5v.8l-.345-.001c-.646-.003-.93-.005-1.056.136C8 1.845 8 2.045 8 2.4Z"/><path d="M9.9 14.4V16h1.6v-4H9.9v1.6h-.8V12H7.5v2.4h2.4Z"/><path d="M3 8 0 5v6l3-3Z"/></g><defs><clipPath id="clip0_1153_24814"><rect width="16" height="16" fill="white"/></clipPath></defs></symbol><symbol id="dxre-insert-section-break-next-page" viewBox="0 0 16 16"><g clip-path="url(#clip0_1153_24778)"><path d="M12 0H7v2h5V0Z"/><path d="M14 5V0h2v5c0 1.1-.9 2-2 2H5c-1.1 0-2-.9-2-2V0h2v5h9Z"/><path d="M3 8 0 5v6l3-3Z"/><path d="M14 16v-5H5v5H3v-5c0-1.1.9-2 2-2h9c1 0 2 1 2 2v5h-2Z"/><path d="M7 14h5v2H7v-2Z"/></g><defs><clipPath id="clip0_1153_24778"><rect width="16" height="16" fill="white"/></clipPath></defs></symbol><symbol id="dxre-insert-section-break-odd-page" viewBox="0 0 16 16"><g clip-path="url(#clip0_1153_24801)"><g opacity="0.25"><path d="M14 5V0h2v5c0 1.1-.9 2-2 2H5c-1.1 0-2-.9-2-2V0h2v5h9Z"/><path d="M14 16v-5H5v5H3v-5c0-1.1.9-2 2-2h9c1 0 2 1 2 2v5h-2Z"/></g><path d="M8.5.8h.667V4H10.5V0h-2v.8Z"/><path d="M11 15.199v-.4c0-.4 0-.799-.75-.799.367 0 .555 0 .65-.094.1-.097.1-.297.1-.705v-.4c0-.808-.317-.806-1.24-.8H8v.8h1.5v.8h-.75v.799h.75v.799H8v.8h1.759c.924.006 1.241.008 1.241-.8Z"/><path d="m0 5 3 3-3 3V5Z"/></g><defs><clipPath id="clip0_1153_24801"><rect width="16" height="16" fill="white"/></clipPath></defs></symbol><symbol id="dxre-insert-table-caption" viewBox="0 0 16 16"><g opacity="0.25"><path d="M9.5 11.5h-3v3h3v-3Z"/><path d="M9.5 6.5h-3v3h3v-3Z"/><path d="M4.5 11.5h-3v3h3v-3Z"/><path d="M4.5 6.5h-3v3h3v-3Z"/><path d="M14.5 11.5h-3v3h3v-3Z"/><path d="M14.5 6.5h-3v3h3v-3Z"/></g><path d="M14.5 2.5a1 1 0 0 0-1-1h-11a1 1 0 0 0-1 1v2h13v-2Z"/></symbol><symbol id="dxre-insert-table-columns-to-the-left" viewBox="0 0 16 16"><g opacity="0.25"><path d="M16 1.5h-3v3h3v-3Z"/><path d="M6 11.5H3v3h3v-3Z"/><path d="M6 1.5H3v3h3v-3Z"/><path d="M16 11.5h-3v3h3v-3Z"/><path d="M16 6.5h-3v3h3v-3Z"/></g><path d="M8 1.5h3v13H8v-13Z"/><path d="M4.333 7.167H6v1.666H4.333V10.5L1 8l3.333-2.5v1.667Z"/></symbol><symbol id="dxre-insert-table-columns-to-the-right" viewBox="0 0 16 16"><g opacity="0.25"><path d="M13 1.5h-3v3h3v-3Z"/><path d="M3 11.5H0v3h3v-3Z"/><path d="M3 1.5H0v3h3v-3Z"/><path d="M13 11.5h-3v3h3v-3Z"/><path d="M3 1.5H0v3h3v-3Z"/><path d="M3 6.5H0v3h3v-3Z"/></g><path d="M8 1.5H5v13h3v-13Z"/><path d="M10 8.833h1.667V10.5L15 8l-3.333-2.5v1.667H10v1.666Z"/></symbol><symbol id="dxre-insert-table-of-captions" viewBox="0 0 16 16"><g clip-path="url(#clip0_1143_24196)"><path opacity="0.25" d="M10 12v-2h2v2h-2Zm0-5h2v2h-2V7Z"/><path fill-rule="evenodd" clip-rule="evenodd" d="M14 16H4c-1.1 0-2-.9-2-2v-3H0V9h2V2c0-1.1.9-2 2-2h10c1.1 0 2 .9 2 2v12c0 1.1-.9 2-2 2Zm0-14H4v7h2V7l3 3-3 3v-2H4v3h10V2ZM6 4h6v2H6V4Z"/></g><defs><clipPath id="clip0_1143_24196"><rect width="16" height="16" fill="white"/></clipPath></defs></symbol><symbol id="dxre-insert-table-of-contents" viewBox="0 0 16 16"><g clip-path="url(#clip0_1143_24204)"><path fill-rule="evenodd" clip-rule="evenodd" d="M14 0H2C.9 0 0 .9 0 2v12c0 1.1.9 2 2 2h12c1.1 0 2-.9 2-2V2c0-1.1-.9-2-2-2Zm0 14H2V2h12v12ZM7 6H4V4h3v2Zm0 3H4V7h3v2Zm0 3H4v-2h3v2Zm5-6H9V4h3v2Zm0 3H9V7h3v2Zm0 3H9v-2h3v2Z"/></g><defs><clipPath id="clip0_1143_24204"><rect width="16" height="16" fill="white"/></clipPath></defs></symbol><symbol id="dxre-insert-table-of-equations" viewBox="0 0 16 16"><path d="M8.035 4.532H9.55l-.303 1.204H7.732l-1.514 5.916c-.706 5.415-9.286 3.008-5.047.903.808-.201 1.11.802 1.817 1.002 1.11 0 1.918-7.12 2.322-7.821H4.098L4.3 4.532h1.212c.1-2.808 3.936-4.613 6.157-2.808 1.01 1.906-1.615 2.407-2.423.903-1.009-.401-1.11 1.203-1.21 1.905Zm2.726 4.814.908 1.805c.908-1.204 1.716-2.507 3.028-1.705.505.401.202 1.103-.404 1.303-.1 0-.807.1-.908.1-.707.302-.606.502-1.312 1.304.504 1.003 1.11 2.507 2.22 1.304l.707.702c-1.615 1.504-3.735.902-4.34-1.103-.707 1.103-1.716 2.306-3.13 1.805-.504-.3-.504-1.203.101-1.404 1.11-.1 1.817-.401 2.423-1.604l-.505-1.204h-.908l.202-1.003c.706.1 1.21-.501 1.918-.3Z"/></symbol><symbol id="dxre-insert-table-of-figures" viewBox="0 0 16 16"><path d="M12 5.5a1.5 1.5 0 1 1-3 0 1.5 1.5 0 0 1 3 0Z"/><path d="M5 7 3 9v3h7L5 7Z"/><path d="m10 9 3 3h-2l-2-2 1-1Z"/><path fill-rule="evenodd" clip-rule="evenodd" d="M0 3a2 2 0 0 1 2-2h12a2 2 0 0 1 2 2v10a2 2 0 0 1-2 2H2a2 2 0 0 1-2-2V3Zm2 0h12v10H2V3Z"/></symbol><symbol id="dxre-insert-table-rows-above" viewBox="0 0 16 16"><g opacity="0.25"><path d="M14.5 3h-3v3h3V3Z"/><path d="M9.5 13h-3v3h3v-3Z"/><path d="M4.5 13h-3v3h3v-3Z"/><path d="M4.5 3h-3v3h3V3Z"/><path d="M14.5 13h-3v3h3v-3Z"/></g><path d="M8.833 6V4.333H10.5L8 1 5.5 4.333h1.667V6h1.666Z"/><path d="M1.5 11V8h13v3h-13Z"/></symbol><symbol id="dxre-insert-table-rows-below" viewBox="0 0 16 16"><g clip-path="url(#clip0_1137_23996)"><g opacity="0.25"><path d="M14.5 0h-3v3h3V0Z"/><path d="M9.5 0h-3v3h3V0Z"/><path d="M4.5 10h-3v3h3v-3Z"/><path d="M4.5 0h-3v3h3V0Z"/><path d="M14.5 10h-3v3h3v-3Z"/></g><path d="M1.5 5h13v3h-13V5Z"/><path d="M7.167 11.667V10h1.666v1.667H10.5L8 15l-2.5-3.333h1.667Z"/></g><defs><clipPath id="clip0_1137_23996"><rect width="16" height="16" fill="white"/></clipPath></defs></symbol><symbol id="dxre-insert-table" viewBox="0 0 16 16"><path d="M11.5 1.5h3v3h-3v-3Z"/><path d="M6.5 11.5h3v3h-3v-3Z"/><path d="M9.5 1.5h-3v3h3v-3Z"/><path d="M1.5 11.5h3v3h-3v-3Z"/><path d="M4.5 1.5h-3v3h3v-3Z"/><path d="M11.5 11.5h3v3h-3v-3Z"/><path d="M4.5 6.5h-3v3h3v-3Z"/><path d="M9.5 6.5h-3v3h3v-3Z"/><path d="M11.5 6.5h3v3h-3v-3Z"/></symbol><symbol id="dxre-insert-text-box" viewBox="0 0 16 16"><path fill-rule="evenodd" clip-rule="evenodd" d="M13 15H3c-1.1 0-2-.9-2-2V3c0-1.1.9-2 2-2h10c1.1 0 2 .9 2 2v10c0 1.1-.9 2-2 2Zm0-12H3v10h10V3Zm-7.5 9H4l3.2-8h1.6l3.2 8h-1.4l-.8-2.1H6.3L5.5 12Zm3.9-3.2L8.1 5.5H8L6.7 8.8h2.7Z"/></symbol><symbol id="dxre-italic" viewBox="0 0 16 16"><path d="M6 1v2h2.2L4.8 13H2v2h8v-2H7.8l3.4-10H14V1H6Z"/></symbol><symbol id="dxre-last" viewBox="0 0 16 16"><path d="M12 14h2V2h-2M2 14l8.5-6L2 2v12Z"/></symbol><symbol id="dxre-line-spacing" viewBox="0 0 16 16"><g clip-path="url(#clip0_1153_24980)"><path fill-rule="evenodd" clip-rule="evenodd" d="M7 15v-2h9v2H7Zm0-8h9v2H7V7Zm0-6h9v2H7V1Z"/><path d="m3 16 3-3H4V3h2L3 0 0 3h2v10H0l3 3Z"/></g><defs><clipPath id="clip0_1153_24980"><rect width="16" height="16" fill="white"/></clipPath></defs></symbol><symbol id="dxre-link-to-previous" viewBox="0 0 16 16"><g clip-path="url(#clip0_1142_24187)"><g opacity="0.25"><path d="M10 8H4v1h6V8Z"/><path d="M10 12v-1H4v1h6Z"/><path d="M10 14v2H2c-1.1 0-2-.9-2-2V4c0-1.1.9-2 2-2h3v2H2v10h8Z"/><path d="M14 8V6h-2v2h2Z"/></g><path d="M12.571 4.375H7.43v-1.75h5.142v1.75Z"/><path d="M7.429 1.75c-1.458 0-1.715.263-1.715 1.75s.257 1.75 1.715 1.75h1.714V7H7.429C5.029 7 4 5.95 4 3.5S5.029 0 7.429 0h1.714v1.75H7.429Z"/><path d="M10.857 0h1.714C14.971 0 16 1.05 16 3.5S14.971 7 12.571 7h-1.714V5.25h1.714c1.458 0 1.715-.263 1.715-1.75s-.257-1.75-1.715-1.75h-1.714V0Z"/><path d="m12 13 3 3v-6l-3 3Z"/></g><defs><clipPath id="clip0_1142_24187"><rect width="16" height="16" fill="white"/></clipPath></defs></symbol><symbol id="dxre-list-bullets" viewBox="0 0 16 16"><g clip-path="url(#clip0_1143_24334)"><path fill-rule="evenodd" clip-rule="evenodd" d="M6 15v-2h10v2H6Zm0-8h10v2H6V7Zm0-6h10v2H6V1ZM2 16c-1.1 0-2-.9-2-2s.9-2 2-2 2 .9 2 2-.9 2-2 2Zm0-6c-1.1 0-2-.9-2-2s.9-2 2-2 2 .9 2 2-.9 2-2 2Zm0-6C.9 4 0 3.1 0 2s.9-2 2-2 2 .9 2 2-.9 2-2 2Z"/></g><defs><clipPath id="clip0_1143_24334"><rect width="16" height="16" fill="white"/></clipPath></defs></symbol><symbol id="dxre-list-multilevel" viewBox="0 0 16 16"><g clip-path="url(#clip0_1143_24341)"><path fill-rule="evenodd" clip-rule="evenodd" d="M8 15v-2h8v2H8ZM6 7h8v2H6V7ZM4 1h8v2H4V1ZM1 4V1H0V0h2v4H1Zm2 9v-1h3v4H3v-1h2v-.5H4v-1h1V13H3Zm.3-7c.4 0 .7.3.7.8 0 .2-.1.3-.2.5L2.1 9H4v1H1v-.9L3 7H1V6h2.3Z"/></g><defs><clipPath id="clip0_1143_24341"><rect width="16" height="16" fill="white"/></clipPath></defs></symbol><symbol id="dxre-list-numbers" viewBox="0 0 16 16"><g clip-path="url(#clip0_1143_24346)"><path fill-rule="evenodd" clip-rule="evenodd" d="M5 15v-2h11v2H5Zm0-8h11v2H5V7Zm0-6h11v2H5V1ZM1 4V1H0V0h2v4H1Zm-1 9v-1h3v4H0v-1h2v-.5H1v-1h1V13H0Zm2.3-7c.4 0 .7.3.7.8 0 .2-.1.3-.2.5L1.1 9H3v1H0v-.9L2 7H0V6h2.3Z"/></g><defs><clipPath id="clip0_1143_24346"><rect width="16" height="16" fill="white"/></clipPath></defs></symbol><symbol id="dxre-mail-merge" viewBox="0 0 16 16"><g clip-path="url(#clip0_1213_22861)"><path opacity="0.25" fill-rule="evenodd" clip-rule="evenodd" d="M14 16H9c-1.1 0-2-.9-2-2v-1h2v1h5V7H9v1H7V7c0-1.1.9-2 2-2h5c1.1 0 2 .9 2 2v7c0 1.1-.9 2-2 2Z"/><path d="M5.5 8V6.5c0-2 1.5-3 3.5-3h3V3c0-1.7-1.6-3-6-3S0 1.3 0 3v6c0 .14-.006.278-.013.414-.043.932-.082 1.75 2.013 2.186V9c0-.5.5-1 1-1h2.5Z"/><path d="M10 9.5V8l3 2.5-3 2.5v-1.5H3.5v-2H10Z"/></g><defs><clipPath id="clip0_1213_22861"><rect width="16" height="16" fill="white"/></clipPath></defs></symbol><symbol id="dxre-merge-table-cells" viewBox="0 0 16 16"><g opacity="0.25"><path d="M14.5 1.5h-3v3h3v-3Z"/><path d="M9.5 1.5h-3v3h3v-3Z"/><path d="M4.5 11.5h-3v3h3v-3Z"/><path d="M4.5 1.5h-3v3h3v-3Z"/><path d="M4.5 6.5h-3v3h3v-3Z"/></g><path d="M14.5 6.5h-8v8h8v-8Z"/></symbol><symbol id="dxre-new" viewBox="0 0 16 16"><g clip-path="url(#clip0_1151_24713)"><path fill-rule="evenodd" clip-rule="evenodd" d="M13 16H3c-1.1 0-2-.9-2-2V2c0-1.1.9-2 2-2h8l4 4v10c0 1.1-.9 2-2 2Zm0-11-3-3H3v12h10V5Z"/></g><defs><clipPath id="clip0_1151_24713"><rect width="16" height="16" fill="white"/></clipPath></defs></symbol><symbol id="dxre-next" viewBox="0 0 16 16"><path d="m4 14 8.5-6L4 2v12Z"/></symbol><symbol id="dxre-open" viewBox="0 0 16 16"><path d="M11.8 15H2c-1.1 0-2-.9-2-2V3c0-1.1.9-2 2-2h2.9l2 1h4.9c1.1 0 2 .9 2 2H2v9l2.1-8H16l-2.3 8.5c-.2.9-1 1.5-1.9 1.5Z"/></symbol><symbol id="dxre-outline-color" viewBox="0 0 16 16"><path d="M7.115 10.765V13H9.34l4.447-4.47-2.223-2.234-4.448 4.47Zm8.45-5.363-.978-.983c-.267-.269-.712-.626-.979-.269l-1.334 1.341 2.224 2.235 1.334-1.34c.356-.269.089-.627-.267-.984ZM1.78 5.849h7.115l1.78-1.788H1.778C.8 4.061 0 4.866 0 5.85v5.363C0 12.195.8 13 1.779 13h3.558v-1.788H1.779V5.85Z"/></symbol><symbol id="dxre-page-color" viewBox="0 0 16 16"><g clip-path="url(#clip0_1153_24765)"><path fill-rule="evenodd" clip-rule="evenodd" d="M13.95 15h-8c-1.1 0-2-.9-2-2h10V3h-4l-2-2h6c1.1 0 2.05.9 2.05 2v10c0 1.1-.95 2-2.05 2Zm-7.8-3.4c-.3.2-.7.4-1.1.4-.4 0-.8-.1-1.1-.4L.45 8.1c-.6-.6-.6-1.5 0-2.1l3.2-3.2-1.3-1.4L3.75 0l5.7 6c.6.5.6 1.5.1 2.1l-3.4 3.5ZM4.95 4l-3 3h6l-3-3Z"/></g><defs><clipPath id="clip0_1153_24765"><rect width="16" height="16" fill="white"/></clipPath></defs></symbol><symbol id="dxre-page-margins-moderate" viewBox="0 0 16 16"><g clip-path="url(#clip0_1140_24119)"><path fill-rule="evenodd" clip-rule="evenodd" d="M14 16H2c-1.1 0-2-.9-2-2V2C0 .9.9 0 2 0h12c1.1 0 2 .9 2 2v12c0 1.1-.9 2-2 2ZM4 2H2v2h2V2Zm0 4H2v4h2V6Zm0 6H2v2h2v-2Zm6-10H6v2h4V2Zm0 4H6v4h4V6Zm0 6H6v2h4v-2Zm4-10h-2v2h2V2Zm0 4h-2v4h2V6Zm0 6h-2v2h2v-2Z"/></g><defs><clipPath id="clip0_1140_24119"><rect width="16" height="16" fill="white"/></clipPath></defs></symbol><symbol id="dxre-page-margins-narrow" viewBox="0 0 16 16"><g clip-path="url(#clip0_1140_24124)"><path fill-rule="evenodd" clip-rule="evenodd" d="M14 16H2c-1.1 0-2-.9-2-2V2C0 .9.9 0 2 0h12c1.1 0 2 .9 2 2v12c0 1.1-.9 2-2 2ZM3 2H2v2h1V2Zm0 4H2v4h1V6Zm0 6H2v2h1v-2Zm8-10H5v2h6V2Zm0 4H5v4h6V6Zm0 6H5v2h6v-2Zm3-10h-1v2h1V2Zm0 4h-1v4h1V6Zm0 6h-1v2h1v-2Z"/></g><defs><clipPath id="clip0_1140_24124"><rect width="16" height="16" fill="white"/></clipPath></defs></symbol><symbol id="dxre-page-margins-normal" viewBox="0 0 16 16"><g clip-path="url(#clip0_1140_24129)"><path fill-rule="evenodd" clip-rule="evenodd" d="M14 16H2c-1.1 0-2-.9-2-2V2C0 .9.9 0 2 0h12c1.1 0 2 .9 2 2v12c0 1.1-.9 2-2 2ZM4 2H2v3h2V2Zm0 5H2v2h2V7Zm0 4H2v3h2v-3Zm6-9H6v3h4V2Zm0 5H6v2h4V7Zm0 4H6v3h4v-3Zm4-9h-2v3h2V2Zm0 5h-2v2h2V7Zm0 4h-2v3h2v-3Z"/></g><defs><clipPath id="clip0_1140_24129"><rect width="16" height="16" fill="white"/></clipPath></defs></symbol><symbol id="dxre-page-margins-wide" viewBox="0 0 16 16"><g clip-path="url(#clip0_1140_24134)"><path fill-rule="evenodd" clip-rule="evenodd" d="M14 16H2c-1.1 0-2-.9-2-2V2C0 .9.9 0 2 0h12c1.1 0 2 .9 2 2v12c0 1.1-.9 2-2 2ZM5 2H2v2h3V2Zm0 4H2v4h3V6Zm0 6H2v2h3v-2ZM9 2H7v2h2V2Zm0 4H7v4h2V6Zm0 6H7v2h2v-2Zm5-10h-3v2h3V2Zm0 4h-3v4h3V6Zm0 6h-3v2h3v-2Z"/></g><defs><clipPath id="clip0_1140_24134"><rect width="16" height="16" fill="white"/></clipPath></defs></symbol><symbol id="dxre-page-margins" viewBox="0 0 16 16"><g clip-path="url(#clip0_1140_24114)"><path fill-rule="evenodd" clip-rule="evenodd" d="M14 16H2c-1.1 0-2-.9-2-2V2C0 .9.9 0 2 0h12c1.1 0 2 .9 2 2v12c0 1.1-.9 2-2 2ZM4 2H2v2h2V2Zm0 4H2v4h2V6Zm0 6H2v2h2v-2Zm6-10H6v2h4V2Zm0 4H6v4h4V6Zm0 6H6v2h4v-2Zm4-10h-2v2h2V2Zm0 4h-2v4h2V6Zm0 6h-2v2h2v-2Z"/></g><defs><clipPath id="clip0_1140_24114"><rect width="16" height="16" fill="white"/></clipPath></defs></symbol><symbol id="dxre-page-orientation-landscape" viewBox="0 0 16 16"><path fill-rule="evenodd" clip-rule="evenodd" d="M14 15H2c-1.1 0-2-.9-2-2V3c0-1.1.9-2 2-2h10l4 4v8c0 1.1-.9 2-2 2Zm0-9-3-3H2v10h12V6Zm-4 1H4V6h6v1Zm2 2H4V8h8v1Zm0 2H4v-1h8v1Z"/></symbol><symbol id="dxre-page-orientation-portrait" viewBox="0 0 16 16"><g clip-path="url(#clip0_1151_24641)"><path fill-rule="evenodd" clip-rule="evenodd" d="M13 16H3c-1.1 0-2-.9-2-2V2c0-1.1.9-2 2-2h8l4 4v10c0 1.1-.9 2-2 2Zm0-11-3-3H3v12h10V5ZM9 6H5V5h4v1Zm2 2H5V7h6v1Zm0 2H5V9h6v1Zm0 2H5v-1h6v1Z"/></g><defs><clipPath id="clip0_1151_24641"><rect width="16" height="16" fill="white"/></clipPath></defs></symbol><symbol id="dxre-page-orientation" viewBox="0 0 16 16"><g clip-path="url(#clip0_1151_24660)"><path fill-rule="evenodd" clip-rule="evenodd" d="M2 12h2v2c0 1.1.9 2 2 2h8c1.1 0 2-.9 2-2V9l-3-3h-2V3L8 0H2C.9 0 0 .9 0 2v8c0 1.1.9 2 2 2Zm7-6V4L7 2H2v8h2V8c0-1.1.9-2 2-2h3Zm-3 8V8h6l2 2v4H6Z"/></g><defs><clipPath id="clip0_1151_24660"><rect width="16" height="16" fill="white"/></clipPath></defs></symbol><symbol id="dxre-paper-size" viewBox="0 0 16 16"><g clip-path="url(#clip0_1144_24583)"><path opacity="0.25" fill-rule="evenodd" clip-rule="evenodd" d="M14 2V0h2v2h-2ZM2 2H0V0h2v2Zm0 12v2H0v-2h2ZM12.5 2h-2V0h2v2ZM9 2H7V0h2v2ZM5.5 0v2h-2V0h2ZM2 3.5v2H0v-2h2ZM2 7v2H0V7h2Zm0 3.5v2H0v-2h2Z"/><path fill-rule="evenodd" clip-rule="evenodd" d="M12 3.5H5.5c-1.1 0-2 .9-2 2V14c0 1.1.9 2 2 2H14c1.1 0 2-.9 2-2V7l-4-3.5ZM14 14H5.5V5.5H11L14 8v6Z"/></g><defs><clipPath id="clip0_1144_24583"><rect width="16" height="16" fill="white"/></clipPath></defs></symbol><symbol id="dxre-paragraph" viewBox="0 0 16 16"><path d="M7 1H4C1.6 1 0 3 0 5.5S1.6 10 4 10h1v5h2.5V3H10v12h2.5V3H15V1H7ZM4 8C2.9 8 2.2 6.8 2.2 5.5S2.9 3 4 3h1v5H4Z"/></symbol><symbol id="dxre-paste" viewBox="0 0 16 16"><path fill-rule="evenodd" clip-rule="evenodd" d="M10.82 2H13c1.1 0 2 .9 2 2v10c0 1.1-.9 2-2 2H3c-1.1 0-2-.9-2-2V4c0-1.1.9-2 2-2h2.18C5.6.84 6.7 0 8 0c1.3 0 2.4.84 2.82 2ZM9 3c0-.55-.45-1-1-1s-1 .45-1 1 .45 1 1 1 1-.45 1-1ZM3 4v10h10V4h-1v2a1 1 0 0 1-1 1H5a1 1 0 0 1-1-1V4H3Z"/></symbol><symbol id="dxre-pen-color" viewBox="0 0 16 16"><g clip-path="url(#clip0_1154_25127)"><path d="M14.834 3.173c.4-.4 0-.902-.401-1.303L13.13.567c-.401-.4-.903-.802-1.304-.4L10.022 1.97l3.008 3.007 1.804-1.805ZM1 10.993V14h3.007l8.02-8.02L9.02 2.973 1 10.993Z"/></g><defs><clipPath id="clip0_1154_25127"><rect width="16" height="16" fill="white"/></clipPath></defs></symbol><symbol id="dxre-prev" viewBox="0 0 16 16"><path d="M12 2 3.5 8l8.5 6V2Z"/></symbol><symbol id="dxre-print-dialog" viewBox="0 0 16 16"><path d="M13 1H3v2h10V1Zm0 7c-.6 0-1-.4-1-1s.4-1 1-1 1 .4 1 1-.4 1-1 1Zm-1 5H4v-3h8m1-6H3C1.3 4 0 5.3 0 7v5h2v3h12v-3h2V7c0-1.7-1.3-3-3-3Z"/></symbol><symbol id="dxre-print-layout-view" viewBox="0 0 16 16"><g clip-path="url(#clip0_1153_24753)"><path fill-rule="evenodd" clip-rule="evenodd" d="M14 14v2H6v-2H4v-3c0-1.7.3-3 2-3h8c1.7 0 2 1.3 2 3v3h-2Zm-2-2H8v2h4v-2ZM6 5h8v2H6V5Zm4-3H2v10h1v2H2c-1.1 0-2-.9-2-2V2C0 .9.9 0 2 0h8c1.1 0 2 .9 2 2v2h-2V2Z"/></g><defs><clipPath id="clip0_1153_24753"><rect width="16" height="16" fill="white"/></clipPath></defs></symbol><symbol id="dxre-redo" viewBox="0 0 16 16"><path d="M0 12a7.505 7.505 0 0 1 7.491-7c2.073 0 3.95.84 5.309 2.197L16 4v8H7.992l3.392-3.39A5.491 5.491 0 0 0 7.491 7a5.504 5.504 0 0 0-5.483 5H0Z"/></symbol><symbol id="dxre-replace-all" viewBox="0 0 16 16"><g clip-path="url(#clip0_1153_24836)"><path fill-rule="evenodd" clip-rule="evenodd" d="M13.5 11h1c1 0 1.5-.5 1.5-1.5v-8c0-1-.5-1.5-1.5-1.5h-8C5.5 0 5 .5 5 1.5v1H4C3 2.5 2.5 3 2.5 4H12v10c1 0 1.5-.5 1.5-1.5V11Zm-7-9.5h8v8h-1V4c0-1-.5-1.5-1.5-1.5H6.5v-1Z"/><path fill-rule="evenodd" clip-rule="evenodd" d="M9 5c1 0 2 1 2 2v7c0 1-1 2-2 2H2c-1 0-2-1-2-2V7c0-1 1-2 2-2h7ZM2.56 9.621l1.768 1.768L8.218 7.5l1.06 1.06-4.95 4.95L1.5 10.683l1.06-1.06Z"/></g><defs><clipPath id="clip0_1153_24836"><rect width="16" height="16" fill="white"/></clipPath></defs></symbol><symbol id="dxre-replace-next" viewBox="0 0 16 16"><g clip-path="url(#clip0_1153_24827)"><path fill-rule="evenodd" clip-rule="evenodd" d="M11 11h3c1.1 0 2-.9 2-2V2c0-1.1-.9-2-2-2H7C5.9 0 5 .9 5 2v3H2C.9 5 0 5.9 0 7v7c0 1.1.9 2 2 2h7c1.1 0 2-.9 2-2v-3ZM7 2h7v7h-3V7c0-1.1-.9-2-2-2H7V2Zm-2.672 9.39L2.561 9.62 1.5 10.682l2.828 2.829 4.95-4.95-1.06-1.06-3.89 3.888Z"/></g><defs><clipPath id="clip0_1153_24827"><rect width="16" height="16" fill="white"/></clipPath></defs></symbol><symbol id="dxre-replace" viewBox="0 0 16 16"><path fill-rule="evenodd" clip-rule="evenodd" d="M7 1H1v6h6V1ZM5 3H3v2h2V3Z"/><path d="M15 8h-2V5h-2v2L8 4l3-3v2h3a1 1 0 0 1 1 1v4Z"/><path d="M1 8h2v3h2V9l3 3-3 3v-2H2a1 1 0 0 1-1-1V8Z"/><path fill-rule="evenodd" clip-rule="evenodd" d="M9 12a3 3 0 1 1 6 0 3 3 0 0 1-6 0Zm2 0a1 1 0 1 1 2 0 1 1 0 0 1-2 0Z"/></symbol><symbol id="dxre-ruler-horizontal" viewBox="0 0 16 16"><path fill-rule="evenodd" clip-rule="evenodd" d="M0 13V5c0-1.1.9-2 2-2h12c1.1 0 2 .9 2 2v8H0Zm3.5-7H2v5h1.5V6ZM7 9H5.5v2H7V9Zm3.5-3H9v5h1.5V6Zm3 3H12v2h1.5V9Z"/></symbol><symbol id="dxre-save" viewBox="0 0 16 16"><g clip-path="url(#clip0_1153_24735)"><path d="M10 5H2V2h8v3Zm-2 9c-1.7 0-3-1.3-3-3s1.3-3 3-3 3 1.3 3 3-1.3 3-3 3Zm4-14H2C.9 0 0 .9 0 2v12c0 1.1.9 2 2 2h12c1.1 0 2-.9 2-2V4l-4-4Z"/></g><defs><clipPath id="clip0_1153_24735"><rect width="16" height="16" fill="white"/></clipPath></defs></symbol><symbol id="dxre-search" viewBox="0 0 16 16"><g clip-path="url(#clip0_1068_21853)"><path fill-rule="evenodd" clip-rule="evenodd" d="M16 14.476 14.476 16l-4.136-4.136a6.598 6.598 0 0 1-3.81 1.197C2.94 13.061 0 10.122 0 6.531 0 2.939 2.939 0 6.53 0c3.592 0 6.531 2.939 6.531 6.53a6.598 6.598 0 0 1-1.197 3.81L16 14.476Zm-9.47-12.3a4.367 4.367 0 0 0-4.353 4.355 4.367 4.367 0 0 0 4.354 4.353 4.367 4.367 0 0 0 4.353-4.353 4.367 4.367 0 0 0-4.353-4.354Z"/></g><defs><clipPath id="clip0_1068_21853"><rect width="16" height="16" fill="white"/></clipPath></defs></symbol><symbol id="dxre-select-all" viewBox="0 0 16 16"><g clip-path="url(#clip0_1151_24602)"><path opacity="0.25" fill-rule="evenodd" clip-rule="evenodd" d="M14 2h-1.5V0H14c1.1 0 2 .9 2 2v1.5h-2V2ZM2 2v1.5H0V2C0 .9.9 0 2 0h1.5v2H2Zm0 12h1.5v2H2c-1.1 0-2-.9-2-2v-1.5h2V14Zm12 0v-1.5h2V14c0 1.1-.9 2-2 2h-1.5v-2H14Z"/><path d="M4 6V4h8v2H4Z"/><path d="M4 7v2h8V7H4Z"/><path d="M4 10v2h8v-2H4Z"/></g><defs><clipPath id="clip0_1151_24602"><rect width="16" height="16" fill="white"/></clipPath></defs></symbol><symbol id="dxre-select-table-cell" viewBox="0 0 16 16"><g opacity="0.25"><path d="M14.5 1.5h-3v3h3v-3Z"/><path d="M9.5 11.5h-3v3h3v-3Z"/><path d="M9.5 1.5h-3v3h3v-3Z"/><path d="M4.5 11.5h-3v3h3v-3Z"/><path d="M4.5 1.5h-3v3h3v-3Z"/><path d="M4.5 6.5h-3v3h3v-3Z"/><path d="M14.5 11.5h-3v3h3v-3Z"/><path d="M14.5 6.5h-3v3h3v-3Z"/></g><path d="M9.5 6.5h-3v3h3v-3Z"/></symbol><symbol id="dxre-select-table-column" viewBox="0 0 16 16"><g opacity="0.25"><path d="M14.5 1.5h-3v3h3v-3Z"/><path d="M4.5 11.5h-3v3h3v-3Z"/><path d="M4.5 1.5h-3v3h3v-3Z"/><path d="M4.5 6.5h-3v3h3v-3Z"/><path d="M14.5 11.5h-3v3h3v-3Z"/><path d="M14.5 6.5h-3v3h3v-3Z"/></g><path d="M9.5 1.5h-3v13h3v-13Z"/></symbol><symbol id="dxre-select-table-row" viewBox="0 0 16 16"><g opacity="0.25"><path d="M14.5 1.5h-3v3h3v-3Z"/><path d="M9.5 11.5h-3v3h3v-3Z"/><path d="M9.5 1.5h-3v3h3v-3Z"/><path d="M4.5 11.5h-3v3h3v-3Z"/><path d="M4.5 1.5h-3v3h3v-3Z"/><path d="M14.5 11.5h-3v3h3v-3Z"/></g><path d="M14.5 6.5h-13v3h13v-3Z"/></symbol><symbol id="dxre-select-table" viewBox="0 0 16 16"><path d="M11.5 1.5h3v3h-3v-3Z"/><path d="M6.5 11.5h3v3h-3v-3Z"/><path d="M9.5 1.5h-3v3h3v-3Z"/><path d="M1.5 11.5h3v3h-3v-3Z"/><path d="M4.5 1.5h-3v3h3v-3Z"/><path d="M11.5 11.5h3v3h-3v-3Z"/><path d="M4.5 6.5h-3v3h3v-3Z"/><path d="M9.5 6.5h-3v3h3v-3Z"/><path d="M11.5 6.5h3v3h-3v-3Z"/></symbol><symbol id="dxre-select" viewBox="0 0 16 16"><path d="M9.59 9.983H14L5 2v10.987L8.1 10.5l1.4 3.173c.09.258.35.43.75.258l.51-.23c.39-.2.39-.5.24-.8L9.59 9.982Z"/></symbol><symbol id="dxre-shading" viewBox="0 0 16 16"><g clip-path="url(#clip0_1154_25121)"><path d="M14.006 8.5s-1.994 2.2-1.994 3.5c0 1.1.898 2 1.994 2C15.103 14 16 13.1 16 12c0-1.3-1.994-3.5-1.994-3.5ZM11.514 7 4.735 0 3.34 1.4l1.395 1.4L.45 7c-.599.6-.599 1.5 0 2.1l4.486 4.5c.299.3.697.4 1.096.4.399 0 .798-.2 1.097-.4l4.486-4.5c.498-.6.498-1.6-.1-2.1ZM2.243 8l3.788-3.8L9.82 8H2.243Z"/></g><defs><clipPath id="clip0_1154_25121"><rect width="16" height="16" fill="white"/></clipPath></defs></symbol><symbol id="dxre-show-all-field-codes" viewBox="0 0 16 16"><g clip-path="url(#clip0_1143_24369)"><g opacity="0.25"><path d="M7 14H1v2h6v-2Z"/><path d="M15 14H9v2h6v-2Z"/><path d="M7 10H1v2h6v-2Z"/><path d="M15 10H9v2h6v-2Z"/></g><path fill-rule="evenodd" clip-rule="evenodd" d="M2.625 0h10.75C14.269 0 15 .72 15 1.6v4.8c0 .88-.731 1.6-1.625 1.6H2.625C1.731 8 1 7.28 1 6.4V1.6C1 .72 1.731 0 2.625 0Zm8.22 5.685c.024.7.05 1.419-1.845 1.29V5.932c.654.116.671-.365.69-.877.017-.479.035-.984.574-1.056-.507-.072-.555-.603-.6-1.094-.048-.518-.091-.992-.664-.84v-1.04c1.863-.174 1.858.562 1.853 1.28-.004.514-.007 1.018.675 1.174v1.04c-.72.157-.702.656-.684 1.165ZM6.335 2.906c-.045.491-.093 1.022-.6 1.094.539.072.557.577.574 1.056.019.512.036.993.69.877v1.041c-1.895.173-1.87-.553-1.844-1.266.018-.519.036-1.03-.684-1.187V3.48c.682-.125.679-.611.675-1.12C5.142 1.65 5.137.896 7 1.026v1.04c-.573-.152-.616.322-.664.84Z"/></g><defs><clipPath id="clip0_1143_24369"><rect width="16" height="16" fill="white"/></clipPath></defs></symbol><symbol id="dxre-show-all-field-results" viewBox="0 0 16 16"><g clip-path="url(#clip0_1143_24383)"><g opacity="0.25"><path d="M7 14H1v2h6v-2Z"/><path d="M15 14H9v2h6v-2Z"/><path d="M7 10H1v2h6v-2Z"/><path d="M15 10H9v2h6v-2Z"/></g><path d="M8 2.125 8.975 4.6h-1.95L8 2.125Z"/><path fill-rule="evenodd" clip-rule="evenodd" d="M2.625 0h10.75C14.269 0 15 .72 15 1.6v4.8c0 .88-.731 1.6-1.625 1.6H2.625C1.731 8 1 7.28 1 6.4V1.6C1 .72 1.731 0 2.625 0ZM7.4 1h1.2L11 7H9.95l-.6-1.5H6.725l-.6 1.5H5l2.4-6Z"/></g><defs><clipPath id="clip0_1143_24383"><rect width="16" height="16" fill="white"/></clipPath></defs></symbol><symbol id="dxre-show-hidden" viewBox="0 0 16 16"><path d="M7 1H4C1.6 1 0 3 0 5.5S1.6 10 4 10h1v5h2.5V3H10v12h2.5V3H15V1H7ZM4 8C2.9 8 2.2 6.8 2.2 5.5S2.9 3 4 3h1v5H4Z"/></symbol><symbol id="dxre-simple-view" viewBox="0 0 16 16"><g clip-path="url(#clip0_1144_24595)"><g opacity="0.25"><path d="M4 6V4h8v2H4Z"/><path d="M4 7v2h8V7H4Z"/><path d="M4 10v2h8v-2H4Z"/></g><path fill-rule="evenodd" clip-rule="evenodd" d="M14 2h-1.5V0H14c1.1 0 2 .9 2 2v1.5h-2V2ZM2 2v1.5H0V2C0 .9.9 0 2 0h1.5v2H2Zm0 12h1.5v2H2c-1.1 0-2-.9-2-2v-1.5h2V14Zm12 0v-1.5h2V14c0 1.1-.9 2-2 2h-1.5v-2H14Zm0-3V9h2v2h-2Zm0-4V5h2v2h-2Zm-3-5H9V0h2v2ZM7 2H5V0h2v2ZM2 5v2H0V5h2Zm0 4v2H0V9h2Zm5 7H5v-2h2v2Zm4 0H9v-2h2v2Z"/></g><defs><clipPath id="clip0_1144_24595"><rect width="16" height="16" fill="white"/></clipPath></defs></symbol><symbol id="dxre-split-table-cells" viewBox="0 0 16 16"><g opacity="0.25"><path d="M3 9H1v2h2V9Z"/><path d="M3 1H1v2h2V1Z"/><path d="M3 5H1v2h2V5Z"/><path d="M3 13H1v2h2v-2Z"/><path d="M7 9H5v2h2V9Z"/><path d="M7 1H5v2h2V1Z"/><path d="M7 5H5v2h2V5Z"/><path d="M7 13H5v2h2v-2Z"/><path d="M11 1H9v2h2V1Z"/><path d="M11 13H9v2h2v-2Z"/><path d="M15 1h-2v2h2V1Z"/><path d="M15 13h-2v2h2v-2Z"/></g><path d="M11 9H9v2h2V9Z"/><path d="M11 5H9v2h2V5Z"/><path d="M15 9h-2v2h2V9Z"/><path d="M15 5h-2v2h2V5Z"/></symbol><symbol id="dxre-strikeout" viewBox="0 0 16 16"><path d="M14 7H9s-1.6-.1-2.5-.9c-.8-.8-.8-1.9-.5-2.3.2-.3.5-.7 1.5-.9 1-.2 3.2.2 4.1.7V1.5c-.7-.3-1.8-.5-3.2-.5C5.1 1 4 2.6 3.7 3c-1.1 1.7 0 3.6.3 4 .1.1-.1-.1 0 0H2v2h5c.1 0-.1 0 0 0 .9.1 2.8.7 2.8 2.3 0 .6-.3 1.1-.7 1.4-.4.3-1.2.4-2.2.4-1.6 0-3.5-1-3.7-1.2v2.3c.2.1 1.6.8 3.8.8 2.2 0 3.2-.5 3.7-.8.5-.3 1.5-1.1 1.5-2.9 0-1.5-.9-2-1.2-2.3-.1-.1.1.1 0 0h3V7Z"/></symbol><symbol id="dxre-subscript" viewBox="0 0 16 16"><g clip-path="url(#clip0_1154_25228)"><path d="M10 2H7.5L5 6.5 2.5 2H0l3.5 6L0 14h2.5L5 9.5 7.5 14H10L6.5 8 10 2Zm3.587 12.886.625-.429c.447-.343.805-.771 1.162-1.2.358-.428.447-.857.447-1.286 0-.514-.178-1.028-.536-1.371-.358-.343-.894-.514-1.609-.6-.447 0-.805.086-1.162.171-.358.086-.626.258-.894.429l.447 1.029.626-.343c.268-.086.447-.172.804-.172.358 0 .626.086.805.257.178.172.268.343.268.6 0 .343-.179.686-.537 1.029-.357.343-.893.857-1.519 1.371l-.983.772V16H16v-1.114h-2.413Z"/></g><defs><clipPath id="clip0_1154_25228"><rect width="16" height="16" fill="white"/></clipPath></defs></symbol><symbol id="dxre-superscript" viewBox="0 0 16 16"><path d="m13.587 4.886.625-.429c.447-.343.805-.771 1.162-1.2.358-.428.447-.857.447-1.286 0-.514-.179-1.028-.536-1.371-.358-.343-.894-.514-1.609-.6-.447 0-.805.086-1.162.171-.358.086-.626.258-.894.429l.447 1.029.626-.343c.268-.086.447-.172.804-.172.358 0 .626.086.805.257.178.172.268.343.268.6 0 .343-.179.686-.537 1.029-.357.343-.893.857-1.52 1.371l-.982.772V6H16V4.886h-2.413Z"/><path d="M7.5 2H10L6.5 8l3.5 6H7.5L5 9.5 2.5 14H0l3.5-6L0 2h2.5L5 6.5 7.5 2Z"/></symbol><symbol id="dxre-table-auto-fit-contents" viewBox="0 0 16 16"><g opacity="0.25"><path d="M9.5 13h-3v3h3v-3Z"/><path d="M4.5 13h-3v3h3v-3Z"/><path d="M14.5 13h-3v3h3v-3Z"/></g><path d="M4.833 4.833h6.334V6.5L14.5 4l-3.333-2.5v1.667H4.833V1.5L1.5 4l3.333 2.5V4.833Z"/><path d="M1.5 11V8h3v3h-3Z"/><path d="M6.5 11V8h3v3h-3Z"/><path d="M11.5 8v3h3V8h-3Z"/></symbol><symbol id="dxre-table-auto-fit-window" viewBox="0 0 16 16"><g clip-path="url(#clip0_1137_24089)"><g opacity="0.25"><path d="M9.5 13h-3v3h3v-3Z"/><path d="M4.5 13h-3v3h3v-3Z"/><path d="M14.5 13h-3v3h3v-3Z"/></g><path fill-rule="evenodd" clip-rule="evenodd" d="M4.48 2.8c.32.32.72.48 1.28.48.48 0 .88-.24 1.28-.56.32-.32.48-.72.48-1.2S7.28.64 7.04.4C6.72.16 6.32 0 5.76 0c-.48 0-.96.16-1.28.48C4.16.72 4 1.2 4 1.68s.16.88.48 1.12Zm.56-1.12c0-.56.32-.88.72-.88.48 0 .72.24.72.8s-.4.88-.8.88-.64-.24-.64-.8Z"/><path d="M6.56 6.4 10.64 0H9.52L5.36 6.4h1.2Z"/><path fill-rule="evenodd" clip-rule="evenodd" d="M8.96 5.92c.32.32.72.48 1.28.48.48 0 .96-.16 1.28-.48.32-.32.48-.8.48-1.28s-.16-.88-.4-1.12c-.32-.24-.72-.4-1.28-.4s-1.04.24-1.36.48c-.32.24-.48.72-.48 1.2s.16.88.48 1.12Zm.56-1.12c0-.56.24-.88.72-.88.24 0 .4.08.48.16.16.16.24.4.24.64 0 .56-.24.88-.72.88s-.72-.24-.72-.8Z"/><path d="M1.5 11V8h3v3h-3Z"/><path d="M6.5 11V8h3v3h-3Z"/><path d="M11.5 11V8h3v3h-3Z"/></g><defs><clipPath id="clip0_1137_24089"><rect width="16" height="16" fill="white"/></clipPath></defs></symbol><symbol id="dxre-table-fixed-column-width" viewBox="0 0 16 16"><g clip-path="url(#clip0_1137_24032)"><g opacity="0.25"><path d="M9.5 13h-3v3h3v-3Z"/><path d="M4.5 13h-3v3h3v-3Z"/><path d="M14.5 13h-3v3h3v-3Z"/></g><path fill-rule="evenodd" clip-rule="evenodd" d="M10.1 1.875v.375c.45 0 .9.45.9.975V5.1c0 .45-.45.9-.975.9H5.9c-.45 0-.9-.45-.9-.975V3.15c0-.45.45-.9.9-.9v-.375C5.9.825 6.95 0 8 0s2.1.825 2.1 1.875Zm-3.225.375h2.25v-.375C9.125 1.275 8.6.9 8 .9s-1.125.375-1.125.975v.375Z"/><path d="M1.5 11V8h3v3h-3Z"/><path d="M6.5 11V8h3v3h-3Z"/><path d="M11.5 11V8h3v3h-3Z"/></g><defs><clipPath id="clip0_1137_24032"><rect width="16" height="16" fill="white"/></clipPath></defs></symbol><symbol id="dxre-table-properties" viewBox="0 0 16 16"><g clip-path="url(#clip0_1137_24099)"><g opacity="0.25"><path d="M13 5h-3v3h3V5Z"/><path d="M13 0h-3v3h3V0Z"/><path d="M8 10H5v3h3v-3Z"/><path d="M8 0H5v3h3V0Z"/><path d="M3 10H0v3h3v-3Z"/><path d="M3 5H0v3h3V5Z"/><path d="M3 0H0v3h3V0Z"/><path d="M8 5H5v3h3V5Z"/></g><path d="m15.94 13.78-.66-.48v-.6l.66-.48c.06-.06.06-.12.06-.18l-.6-1.02c-.06-.06-.12-.06-.18-.06l-.84.24c-.18-.12-.36-.24-.54-.3l-.12-.78c.06-.06-.06-.12-.12-.12h-1.2c-.06 0-.12.06-.18.12l-.12.78c-.18.12-.36.18-.54.3l-.72-.3c-.06 0-.12 0-.18.06l-.6 1.02c-.06.06 0 .12.06.18l.66.48v.6l-.66.48c-.12.12-.12.18-.12.24l.6 1.02c.06.06.12.06.18.06l.78-.24c.18.12.36.24.54.3l.12.78c0 .06.06.12.18.12h1.2c.06 0 .12-.06.18-.12l.12-.78c.18-.06.36-.18.54-.3l.78.3c.06 0 .18 0 .18-.06l.6-1.02c0-.12 0-.18-.06-.24ZM13 13.9c-.54 0-.9-.42-.9-.9 0-.48.42-.9.9-.9.48 0 .9.42.9.9 0 .48-.36.9-.9.9Z"/></g><defs><clipPath id="clip0_1137_24099"><rect width="16" height="16" fill="white"/></clipPath></defs></symbol><symbol id="dxre-text-wrap-behind" viewBox="0 0 16 16"><g clip-path="url(#clip0_1143_24279)"><g opacity="0.25"><path d="M0 3.5h16v2H0v-2Z"/><path d="M16 7H0v2h16V7Z"/><path d="M16 10.5H0v2h16v-2Z"/></g><path d="M16 0H0v2h16V0Z"/><path d="M16 16v-2H0v2h16Z"/><path d="M3.5 12.5v-1.08c0-1.26 1.98-2.25 4.5-2.25s4.5.99 4.5 2.25v1.08h-9Z"/><path d="M8 8a2.25 2.25 0 1 0 0-4.5A2.25 2.25 0 0 0 8 8Z"/></g><defs><clipPath id="clip0_1143_24279"><rect width="16" height="16" fill="white"/></clipPath></defs></symbol><symbol id="dxre-text-wrap-in-front-of-text" viewBox="0 0 16 16"><g clip-path="url(#clip0_1143_24287)"><g opacity="0.25"><path d="M0 3.5h16v2H0v-2Z"/><path d="M16 7H0v2h16V7Z"/><path d="M16 10.5H0v2h16v-2Z"/><path d="M0 0h16v2H0V0Z"/><path d="M0 14h16v2H0v-2Z"/></g><path d="M10.25 5.75a2.25 2.25 0 1 1-4.5 0 2.25 2.25 0 0 1 4.5 0Z"/><path d="M3.5 12.5v-1.08c0-1.26 1.98-2.25 4.5-2.25s4.5.99 4.5 2.25v1.08h-9Z"/></g><defs><clipPath id="clip0_1143_24287"><rect width="16" height="16" fill="white"/></clipPath></defs></symbol><symbol id="dxre-text-wrap-inline" viewBox="0 0 16 16"><g clip-path="url(#clip0_1143_24306)"><path d="M16 0H0v2h16V0Z"/><path d="M16 14H0v2h16v-2Z"/><path d="M0 12.5v-1.08c0-1.26 1.98-2.25 4.5-2.25s4.5.99 4.5 2.25v1.08H0Z"/><path d="M6.75 5.75a2.25 2.25 0 1 1-4.5 0 2.25 2.25 0 0 1 4.5 0Z"/><path d="M16 10.5h-4v2h4v-2Z"/><path d="M16 7h-4v2h4V7Z"/><path d="M16 3.5h-6v2h6v-2Z"/></g><defs><clipPath id="clip0_1143_24306"><rect width="16" height="16" fill="white"/></clipPath></defs></symbol><symbol id="dxre-text-wrap-square" viewBox="0 0 16 16"><g clip-path="url(#clip0_1143_24313)"><path d="M16 0H0v2h16V0Z"/><path d="M16 14H0v2h16v-2Z"/><path d="M3.5 12.5v-1.08c0-1.26 1.98-2.25 4.5-2.25s4.5.99 4.5 2.25v1.08h-9Z"/><path d="M10.25 5.75a2.25 2.25 0 1 1-4.5 0 2.25 2.25 0 0 1 4.5 0Z"/><path d="M16 10.5h-2v2h2v-2Z"/><path d="M16 7h-2v2h2V7Z"/><path d="M16 3.5h-2v2h2v-2Z"/><path d="M2 10.5H0v2h2v-2Z"/><path d="M2 7H0v2h2V7Z"/><path d="M2 3.5H0v2h2v-2Z"/></g><defs><clipPath id="clip0_1143_24313"><rect width="16" height="16" fill="white"/></clipPath></defs></symbol><symbol id="dxre-text-wrap-through" viewBox="0 0 16 16"><g clip-path="url(#clip0_1143_24318)"><path d="M16 0H0v2h16V0Z"/><path d="M16 14H0v2h16v-2Z"/><path d="M3.5 12.5v-1.08c0-1.26 1.98-2.25 4.5-2.25s4.5.99 4.5 2.25v1.08h-9Z"/><path d="M10.25 5.75a2.25 2.25 0 1 1-4.5 0 2.25 2.25 0 0 1 4.5 0Z"/><path d="M16 10.5h-2v2h2v-2Z"/><path d="M16 7h-4l1 2h3V7Z"/><path d="M16 3.5h-5l1 2h4v-2Z"/><path d="M2 10.5H0v2h2v-2Z"/><path d="M4 7H0v2h3l1-2Z"/><path d="M5 3.5H0v2h4l1-2Z"/></g><defs><clipPath id="clip0_1143_24318"><rect width="16" height="16" fill="white"/></clipPath></defs></symbol><symbol id="dxre-text-wrap-tight" viewBox="0 0 16 16"><g clip-path="url(#clip0_1143_24323)"><path d="M16 0H0v2h16V0Z"/><path d="M16 14H0v2h16v-2Z"/><path d="M3.5 12.5v-1.08c0-1.26 1.98-2.25 4.5-2.25s4.5.99 4.5 2.25v1.08h-9Z"/><path d="M10.25 5.75a2.25 2.25 0 1 1-4.5 0 2.25 2.25 0 0 1 4.5 0Z"/><path d="M16 10.5h-2v2h2v-2Z"/><path d="M16 7h-2v2h2V7Z"/><path d="M16 3.5h-3v2h3v-2Z"/><path d="M2 10.5H0v2h2v-2Z"/><path d="M2 7H0v2h2V7Z"/><path d="M3 3.5H0v2h3v-2Z"/></g><defs><clipPath id="clip0_1143_24323"><rect width="16" height="16" fill="white"/></clipPath></defs></symbol><symbol id="dxre-text-wrap-top-and-bottom" viewBox="0 0 16 16"><g clip-path="url(#clip0_1143_24328)"><path d="M16 0H0v2h16V0Z"/><path d="M16 14H0v2h16v-2Z"/><path d="M3.5 12.5v-1.08c0-1.26 1.98-2.25 4.5-2.25s4.5.99 4.5 2.25v1.08h-9Z"/><path d="M10.25 5.75a2.25 2.25 0 1 1-4.5 0 2.25 2.25 0 0 1 4.5 0Z"/></g><defs><clipPath id="clip0_1143_24328"><rect width="16" height="16" fill="white"/></clipPath></defs></symbol><symbol id="dxre-toggle-field-codes" viewBox="0 0 16 16"><g clip-path="url(#clip0_1153_24947)"><path d="M10.502 12.636c0-.818.6-1.454 1.299-1.454.7 0 1.2.636 1.3 1.454 0 .819-.6 1.455-1.3 1.455-.7 0-1.3-.636-1.3-1.455Z"/><path d="M6.603 12.818c-1.4.091-1.4.728-1.4.818 0 .091 0 .637.8.637 1.3 0 1-1.455 1-1.455h-.4Z"/><path fill-rule="evenodd" clip-rule="evenodd" d="M14.375 8H3.625C2.731 8 2 8.72 2 9.6v4.8c0 .88.731 1.6 1.625 1.6h10.75c.894 0 1.625-.72 1.625-1.6V9.6c0-.88-.731-1.6-1.625-1.6Zm-2.274 7c-.3 0-.6-.09-.9-.182-.2-.09-.5-.272-.6-.545v.545H9.402V9h1.3v1.91c.1-.274.4-.456.6-.546.2-.091.599-.182.799-.182 1.799 0 1.899 2 1.899 2.364C14 13.09 13.8 15 12.1 15Zm-4.848-.41c-.025-.09-.05-.18-.05-.226-.2.272-.8.545-1.5.545-1.599 0-1.699-1-1.699-1.273l-.001-.062c-.014-.355-.054-1.392 2.1-1.392.2 0 .9-.091.9-.546 0-.09 0-.545-.8-.545-.6 0-.8.455-.8.636H4.205c0-.273.2-1.545 2.1-1.545 1.699 0 2.098 1.09 2.098 1.272v2.364c0 .273.1.91.2 1h-1.3c0-.045-.024-.136-.049-.227Z"/><path opacity="0.25" fill-rule="evenodd" clip-rule="evenodd" d="M11.375 0h-9.75C.731 0 0 .72 0 1.6v4.8C0 7.28.731 8 1.625 8h9.75C12.269 8 13 7.28 13 6.4V1.6c0-.88-.731-1.6-1.625-1.6ZM7.528 6.974c1.895.13 1.87-.59 1.845-1.29-.019-.508-.036-1.007.683-1.163V3.48c-.682-.156-.679-.66-.675-1.174.005-.718.01-1.454-1.853-1.28v1.04c.573-.152.616.322.664.84.045.491.094 1.022.6 1.094-.538.072-.557.577-.574 1.056-.019.512-.036.993-.69.877v1.041ZM4.264 4c.507-.072.555-.603.6-1.094.048-.518.092-.992.664-.84v-1.04C3.665.896 3.67 1.65 3.675 2.36c.004.509.008.995-.675 1.12v1.04c.72.157.702.67.684 1.188-.025.713-.05 1.439 1.844 1.266v-1.04c-.653.115-.67-.366-.69-.878-.017-.479-.035-.984-.574-1.056Z"/></g><defs><clipPath id="clip0_1153_24947"><rect width="16" height="16" fill="white"/></clipPath></defs></symbol><symbol id="dxre-underline" viewBox="0 0 16 16"><path d="M2 16h12v-2H2v2Zm6-4c2.829 0 5-2.067 5-5V1h-2v6c0 1.689-1.371 3-3 3S5 8.689 5 7V1H3v6c0 2.933 2.171 5 5 5Z"/></symbol><symbol id="dxre-undo" viewBox="0 0 16 16"><path d="M16 12a7.505 7.505 0 0 0-7.491-7c-2.073 0-3.95.84-5.309 2.197L0 4v8h8.008L4.616 8.61A5.491 5.491 0 0 1 8.509 7a5.504 5.504 0 0 1 5.483 5H16Z"/></symbol><symbol id="dxre-update-field" viewBox="0 0 16 16"><g clip-path="url(#clip0_1151_24729)"><path d="M12.667 6.333C12 4.417 10.167 3 8 3c-1.583 0-3 .75-3.917 1.917L3 3.833v3.334h3.333L5.167 6.083c.666-.916 1.583-1.5 2.75-1.5 1.25 0 2.333.75 2.916 1.75h1.834Z"/><path d="M10.75 9.833c-.667.917-1.583 1.5-2.75 1.5a3.361 3.361 0 0 1-2.917-1.666h-1.75C4 11.583 5.833 13 8 13c1.583 0 3-.75 3.917-1.917L13 12.167V8.833H9.667l1.083 1Z"/><path fill-rule="evenodd" clip-rule="evenodd" d="M0 14c0 1.1.9 2 2 2h12c1.1 0 2-.9 2-2V2c0-1-1-2-2-2H2C.9 0 0 .9 0 2v12ZM2 2h12v12H2V2Z"/></g><defs><clipPath id="clip0_1151_24729"><rect width="16" height="16" fill="white"/></clipPath></defs></symbol><symbol id="dxre-update-table-of-contents" viewBox="0 0 16 16"><g clip-path="url(#clip0_1151_24724)"><path d="M12.667 6.333C12 4.417 10.167 3 8 3c-1.583 0-3 .75-3.917 1.917L3 3.833v3.334h3.333L5.167 6.083c.666-.916 1.583-1.5 2.75-1.5 1.25 0 2.333.75 2.916 1.75h1.834Z"/><path d="M10.75 9.833c-.667.917-1.583 1.5-2.75 1.5a3.361 3.361 0 0 1-2.917-1.666h-1.75C4 11.583 5.833 13 8 13c1.583 0 3-.75 3.917-1.917L13 12.167V8.833H9.667l1.083 1Z"/><path fill-rule="evenodd" clip-rule="evenodd" d="M0 14c0 1.1.9 2 2 2h12c1.1 0 2-.9 2-2V2c0-1-1-2-2-2H2C.9 0 0 .9 0 2v12ZM2 2h12v12H2V2Z"/></g><defs><clipPath id="clip0_1151_24724"><rect width="16" height="16" fill="white"/></clipPath></defs></symbol><symbol id="dxre-view-merged-data" viewBox="0 0 16 16"><g clip-path="url(#clip0_1143_24217)"><path opacity="0.25" fill-rule="evenodd" clip-rule="evenodd" d="M4 10h2v2H4v-2Zm0-6h6v2H4V4Zm3 5H4V7h4L7 9Z"/><path d="M2 2h10v5h2V2c0-1-1-2-2-2H2C1 0 0 1 0 2v12c0 1 1 2 2 2h5v-2H2V2Z"/><path fill-rule="evenodd" clip-rule="evenodd" d="M14.4 11.2c0-1.76-1.44-3.2-3.2-3.2A3.21 3.21 0 0 0 8 11.2c0 1.76 1.44 3.2 3.2 3.2.64 0 1.2-.16 1.68-.48L15.04 16l.96-1.04-2.08-2.08c.32-.48.48-1.04.48-1.68Zm-1.6 0c0 .88-.72 1.6-1.6 1.6-.88 0-1.6-.72-1.6-1.6 0-.88.72-1.6 1.6-1.6.88 0 1.6.72 1.6 1.6Z"/></g><defs><clipPath id="clip0_1143_24217"><rect width="16" height="16" fill="white"/></clipPath></defs></symbol><symbol id="dxre-view-table-gridlines" viewBox="0 0 16 16"><g clip-path="url(#clip0_1135_23800)"><path opacity="0.25" fill-rule="evenodd" clip-rule="evenodd" d="M5.5 10.5v2h-2v-2h2Zm5 0h2v2h-2v-2Zm-7-7h2v2h-2v-2Zm9 0v2h-2v-2h2Z"/><path d="M9 7H7v2h2V7Z"/><path fill-rule="evenodd" clip-rule="evenodd" d="M14 16c1.1 0 2-.9 2-2V2c0-1.1-.9-2-2-2H2C.9 0 0 .9 0 2v12c0 1.1.9 2 2 2h12Zm-5-2h5V9h-3.5V7H14V2H9v3.5H7V2H2v5h3.5v2H2v5h5v-3.5h2V14Z"/></g><defs><clipPath id="clip0_1135_23800"><rect width="16" height="16" fill="white"/></clipPath></defs></symbol></svg>